<mxfile host="app.diagrams.net" modified="2024-03-03T06:19:09.650Z" agent="Mozilla/5.0 (Macintosh; Intel Mac OS X 10_15_7) AppleWebKit/605.1.15 (KHTML, like Gecko) Version/17.3.1 Safari/605.1.15" etag="Sh4GjbBwZGAlvFI533FR" version="24.0.0" type="device" pages="5">
  <diagram name="HLD" id="o__tt-3YyC1YQRzvYi2C">
    <mxGraphModel dx="1242" dy="771" grid="1" gridSize="10" guides="1" tooltips="1" connect="1" arrows="1" fold="1" page="1" pageScale="1" pageWidth="827" pageHeight="1169" background="none" math="0" shadow="0">
      <root>
        <mxCell id="0" />
        <mxCell id="1" parent="0" />
        <mxCell id="RbsXL6IKzqATdd5hzsG_-24" value="" style="group;dashed=1;" parent="1" vertex="1" connectable="0">
          <mxGeometry x="259.95" y="210" width="320" height="260" as="geometry" />
        </mxCell>
        <mxCell id="RbsXL6IKzqATdd5hzsG_-22" value="" style="rounded=0;whiteSpace=wrap;html=1;fillColor=none;dashed=1;" parent="RbsXL6IKzqATdd5hzsG_-24" vertex="1">
          <mxGeometry y="-70" width="301.89" height="330" as="geometry" />
        </mxCell>
        <mxCell id="RbsXL6IKzqATdd5hzsG_-25" value="Post Service" style="rounded=1;whiteSpace=wrap;html=1;" parent="RbsXL6IKzqATdd5hzsG_-24" vertex="1">
          <mxGeometry x="80.00283018867924" y="56" width="126.79245283018867" height="52" as="geometry" />
        </mxCell>
        <mxCell id="RbsXL6IKzqATdd5hzsG_-42" value="News Feed Service" style="rounded=1;whiteSpace=wrap;html=1;" parent="RbsXL6IKzqATdd5hzsG_-24" vertex="1">
          <mxGeometry x="9.05" y="200" width="100.95" height="42" as="geometry" />
        </mxCell>
        <mxCell id="RbsXL6IKzqATdd5hzsG_-49" value="" style="shape=flexArrow;endArrow=classic;html=1;rounded=0;exitX=0.5;exitY=1;exitDx=0;exitDy=0;entryX=0.5;entryY=0;entryDx=0;entryDy=0;dashed=1;" parent="RbsXL6IKzqATdd5hzsG_-24" source="RbsXL6IKzqATdd5hzsG_-25" target="RbsXL6IKzqATdd5hzsG_-42" edge="1">
          <mxGeometry width="50" height="50" relative="1" as="geometry">
            <mxPoint x="270" y="200" as="sourcePoint" />
            <mxPoint x="320" y="150" as="targetPoint" />
          </mxGeometry>
        </mxCell>
        <mxCell id="RbsXL6IKzqATdd5hzsG_-52" value="5 (Async). Add to follower&#39;s feed" style="edgeLabel;html=1;align=center;verticalAlign=middle;resizable=0;points=[];" parent="RbsXL6IKzqATdd5hzsG_-49" vertex="1" connectable="0">
          <mxGeometry x="-0.2473" y="5" relative="1" as="geometry">
            <mxPoint x="5" y="4" as="offset" />
          </mxGeometry>
        </mxCell>
        <mxCell id="RbsXL6IKzqATdd5hzsG_-56" value="Ranking Service" style="rounded=1;whiteSpace=wrap;html=1;" parent="RbsXL6IKzqATdd5hzsG_-24" vertex="1">
          <mxGeometry x="206.8" y="200" width="90" height="40" as="geometry" />
        </mxCell>
        <mxCell id="RbsXL6IKzqATdd5hzsG_-57" value="" style="endArrow=classic;startArrow=classic;html=1;rounded=0;entryX=0;entryY=0.5;entryDx=0;entryDy=0;" parent="RbsXL6IKzqATdd5hzsG_-24" target="RbsXL6IKzqATdd5hzsG_-56" edge="1">
          <mxGeometry width="50" height="50" relative="1" as="geometry">
            <mxPoint x="110" y="220" as="sourcePoint" />
            <mxPoint x="160" y="170" as="targetPoint" />
          </mxGeometry>
        </mxCell>
        <mxCell id="RbsXL6IKzqATdd5hzsG_-61" value="6. Find Rank" style="edgeLabel;html=1;align=center;verticalAlign=middle;resizable=0;points=[];" parent="RbsXL6IKzqATdd5hzsG_-57" vertex="1" connectable="0">
          <mxGeometry x="0.1093" y="1" relative="1" as="geometry">
            <mxPoint x="-1" y="-9" as="offset" />
          </mxGeometry>
        </mxCell>
        <mxCell id="RbsXL6IKzqATdd5hzsG_-4" value="" style="shape=actor;whiteSpace=wrap;html=1;" parent="1" vertex="1">
          <mxGeometry x="69" y="266" width="40" height="60" as="geometry" />
        </mxCell>
        <mxCell id="RbsXL6IKzqATdd5hzsG_-9" value="" style="endArrow=classic;html=1;rounded=0;entryX=0;entryY=0.5;entryDx=0;entryDy=0;exitX=0.9;exitY=0.5;exitDx=0;exitDy=0;exitPerimeter=0;" parent="1" source="RbsXL6IKzqATdd5hzsG_-4" target="RbsXL6IKzqATdd5hzsG_-25" edge="1">
          <mxGeometry width="50" height="50" relative="1" as="geometry">
            <mxPoint x="109" y="340" as="sourcePoint" />
            <mxPoint x="269.0000000000002" y="320" as="targetPoint" />
          </mxGeometry>
        </mxCell>
        <mxCell id="RbsXL6IKzqATdd5hzsG_-38" value="" style="endArrow=classic;html=1;rounded=0;entryX=0;entryY=0.5;entryDx=0;entryDy=0;exitX=1;exitY=0.5;exitDx=0;exitDy=0;" parent="1" source="RbsXL6IKzqATdd5hzsG_-25" target="RbsXL6IKzqATdd5hzsG_-7" edge="1">
          <mxGeometry width="50" height="50" relative="1" as="geometry">
            <mxPoint x="549" y="340" as="sourcePoint" />
            <mxPoint x="599" y="290" as="targetPoint" />
          </mxGeometry>
        </mxCell>
        <mxCell id="Sg8ZX70EvNhemciQKm6P-5" value="3. Save Post" style="edgeLabel;html=1;align=center;verticalAlign=middle;resizable=0;points=[];" parent="RbsXL6IKzqATdd5hzsG_-38" vertex="1" connectable="0">
          <mxGeometry x="0.1333" y="2" relative="1" as="geometry">
            <mxPoint x="10" as="offset" />
          </mxGeometry>
        </mxCell>
        <mxCell id="RbsXL6IKzqATdd5hzsG_-47" value="" style="group" parent="1" vertex="1" connectable="0">
          <mxGeometry x="289" y="540" width="61.90999999999997" height="78" as="geometry" />
        </mxCell>
        <mxCell id="RbsXL6IKzqATdd5hzsG_-3" value="" style="image;sketch=0;aspect=fixed;html=1;points=[];align=center;fontSize=12;image=img/lib/mscae/Cache_Redis_Product.svg;" parent="RbsXL6IKzqATdd5hzsG_-47" vertex="1">
          <mxGeometry width="61.91" height="52" as="geometry" />
        </mxCell>
        <mxCell id="RbsXL6IKzqATdd5hzsG_-14" value="Redis" style="text;html=1;align=center;verticalAlign=middle;resizable=0;points=[];autosize=1;strokeColor=none;fillColor=none;" parent="RbsXL6IKzqATdd5hzsG_-47" vertex="1">
          <mxGeometry x="3.3600000000000136" y="48" width="50" height="30" as="geometry" />
        </mxCell>
        <mxCell id="RbsXL6IKzqATdd5hzsG_-53" value="" style="endArrow=classic;html=1;rounded=0;exitX=0.5;exitY=1;exitDx=0;exitDy=0;entryX=0.481;entryY=0.001;entryDx=0;entryDy=0;entryPerimeter=0;" parent="1" source="RbsXL6IKzqATdd5hzsG_-42" target="RbsXL6IKzqATdd5hzsG_-3" edge="1">
          <mxGeometry width="50" height="50" relative="1" as="geometry">
            <mxPoint x="419" y="440" as="sourcePoint" />
            <mxPoint x="469" y="390" as="targetPoint" />
          </mxGeometry>
        </mxCell>
        <mxCell id="RbsXL6IKzqATdd5hzsG_-94" value="7. Save Feed" style="edgeLabel;html=1;align=center;verticalAlign=middle;resizable=0;points=[];" parent="RbsXL6IKzqATdd5hzsG_-53" vertex="1" connectable="0">
          <mxGeometry x="0.1126" y="1" relative="1" as="geometry">
            <mxPoint x="8" as="offset" />
          </mxGeometry>
        </mxCell>
        <mxCell id="M72GEIVWZqwMl65Am_JF-2" value="" style="group" parent="1" vertex="1" connectable="0">
          <mxGeometry x="670" y="360" width="110" height="123.07999999999998" as="geometry" />
        </mxCell>
        <mxCell id="RbsXL6IKzqATdd5hzsG_-8" value="" style="shape=image;verticalLabelPosition=bottom;verticalAlign=top;imageAspect=0;aspect=fixed;image=data:image/png,iVBORw0KGgoAAAANSUhEUgAAANMAAADvCAMAAABfYRE9AAAAxlBMVEX///9mskUAjMEAiL8AisAAhr4AhL1nskYAjMIAgrxjsUFfrzxhsD8AjsZdrjn8/vv3+/X1+/1YrDIAjMby+fzv9+uDwGtUqizX7PXh8/n4/Pbg79qq05ra7NPp9OSg0OXA4O66262z2KTO5sR0uFh8vGKWyYEAlMjG4bs4oczU6cqAv9zK6PNvt0/A37SQx3qi0I82ncqp1uhvvt6SzeS43OxaqdBytteDv9yRxnxesNQXmtAgoc8spNBRsdeYyOFKn8ttsdX2l4rQAAAXQElEQVR4nO1daXuquhZGwoyg4kidR7TO1qHbDrr//5+6SRAFZAgItvs89/20T0+rvGRlZc2hqP/jv4Z8q16vt/K5n36OpNBaNJbDwWA+Hwwrq279px/nYeTrjUG1qqnZrASRlbVqNbNq5n/6sR5AvjmSNDXD8xkL8J9ZTa2Myz/9aHHRHPGqlLmHpMrL8b+5tRoZT0YYcvZP+FKVSjpCqfSEhyVCfVj1ZYTWSpP6HktVgDRmm+nb99enYQgCQFAEw/j8+n6btjs1vVR4PhUL/YHKB1CCO0uWeg5SBX3WOU2/Pw0BFIsKhiDQtCAoFxRZxvj8Ppx2M/1HiI15OZARQjbbuP6+3tke9p8GXBSTiScEGv5fAIyP/WG7059OSc6GUkLyZ5LS29/rjw+F8SXjoiYwivKxPm5rz6TUl0goQVSR+G1ZKGpEbBzMoCx+TjvPWq76IFzwLiuVGcNlOoPIjCxaytfpKbRyFZWQEtTpgxZFbRgyofOkpXzst+mz6lWJKWUyagX+xZG1PybDcSzLcgwpLUH5OHbSpdT0P2m9UF1Q1MzGCYDzdFer7aZnQMqKForFr02Ki5UbkUseQnYADYojd6N0ujycfqLJ9xmUwa9TanrwlY+0TFD6uraFYpjN7aM25CuFWU1S2lgvq2jLBBdq2KIKkwsp0LZ/2FYk54RprbdpWBh1nvBoukGG+nzDYtXH7p326oQN4+GEUvzcJG/xdrWolDLqKE/VDOZ+ma5Uo7BSjrukOUU4myxk52VK3yN9INAz56fVjKuaYDhR5AiUBtTs02S3VTmaIjeh9SnqhB6XWbueRl9fWADW+J5Oj2tAxGrdTnJbjaOctxfw2upiS3hwwhtKYM9tvE0Kuz3JWawo3wkuVUML9po8oQ4pqkMjTobriNFN2WOP10csTYkMDKgrEluqZYgn6IlsJkfV1uhRGdf+njHop9zEpstKBy6MEF4q4y2ppRqSWuR2SGqLKp3R04N358fh52eAY/WueywYUFd0EqGUH8RQEdDma1IFrPgYw/EcNSxn3JvzS9q+nASGAdD8ZXEYgy0Wt0mcVeV5PE6vlm0OzjaJ0fGRy4CO80tm3oQAK7KMsd4f3k9thNNp+pbEpmpFNfYw+Bsnmp1cSdX2+Ef3iuN8pyUEIIrM56E9q+mlW2SpUEoiylR+mBPNGlO9AKG/0eZPgFvBl9x+MWDB+s3pa+RyicVE84PI1h7CdT/hdRHpyfE4EcTLatytU8mxToBloMN12Tj5cqv+Ou72Go1Vo9ftN+ut8sujnHKx9F5GazlePmChp3t9bobuOL/kYhtaL+C4MTnn6/3eqDLIyOoV2flguer2W4+tWQxzD+pyOR+koVmXgt/cflNkjzO8RC+vjeVAUlU56xB+KSvLcmbwp9d8gNMqjh0hD6AyM3wtcEA7VLK+txwQVjjiJco1V3NNlX23siRr6qAXe7UWcew9dRQcOxKPdvV1stxHZt9B/90aVzQtZBvzGVmTl6/xMkT16O4T3E6Li13uL323lWoz+DcFbo29v1ZvqKoZEuGQVGm5iMMqRxyutH2ZVIdWXBAnhjleHCv9zVQerIjNuZfuQCXXtJIsV8YxSDVi+LlL6OcGG3ECy35tN7vtt8CZPv4ahWJyi3mY0Lkha5Vm5H1Vz0Q+deUuRe1C7VLo5lqOLgP+It1QH1VjnByq2ogqgPll5LjRoE4VjhGCKYBDtmkOil10RlBdSFqlH5HUOOq7U6GXq9PkkTwWB2LyS6J0kCdkvhFKw7VQ0UhJ8xZFvZEH8ljsjrzO4yjY63dWh9Hkrx9NJKrwnekC8TJxa6QBF3wcf/oGXhu+RiI1imBL8PI8T1FTInccU8IGbS8bW+4sqINIWr2clYlJSWof2UWkywSwPdvQYnmeTshZYlIdKBqvGeLXKPdyVGlPqvSAAT89v3pkK90gVbtklGrG3xJUs1nCF6mu8jcDLhQMvUOUYqlwL1LSgoRSaV8EJ2iyEFoTWiWPInukkidukxI8E9kMifhtFejQoRjdKLCIxaI0yKOwJOkyiUf4wYtkBO9CKhvuV+0+BJTp68B/9sLKCXgJ5TOgoUdKCedxxv5eUgzwMt8KoaRPcJkDWENSuXGI6SJLvfw1NkQArB+aMcz+QFLqMuTwnSqmXwfWSPxalarvUkGja4BKqGpn4gQTB/dpPlZoIBByI9BMnynW811Msi7vw0rS1BV6PzPivURzEyqWIxMGSQ4yaAuTW4ENIx6Qy5bvDeQ7UxN6ZvMVEuPSliVOrAMUM++TKJ6I4GU5QPra9pohgZvsUBChtRgNUFDq8jBZWVX5pRnFmR1ZcmOcm0L7JF6gLYyUNvKVvtrEsTMEIBywv52vj1eVuaohqPxw1G3i91J7J5c7tENrVK6XBiWIrJ/0Fd7dpV0MS1+iCLl8vt7s9/uv9fKlwlyfGuRyh1x3uD/r84cNV2/IFR/pmxke5WqiOGnX3PmSkr47AjFSKRjKduT+JK8gLlB9DL9vzwo8geOM42mH0g2FQqFU0med9sEAxPVRF6BliljGFAW4OO0enaLP4wiAZWnjvD/+PRz+7s8GSkJEI4SO21LMrCohtJ4Xp0lgoSQDzMwdYJg4pXoiVHrNlBQEBkoo32HzEVGaooChofuSmIfhBd7DlSodo9ezkoM7oHLU1HYTgly5S1N1PmIXf4YD53O7aYoehOQ+o0oHn2ViWJHjWPAYYZT7LFdS5qSuXDuq5p07YsD6sG1vp2cmZl2yCfa9ADVEqqIH12ng6st681TkgL4Uc+qbc8QyPAdQbUsKBrkLLgOpRHuJHrCVNejf0QomHZSQqZewK+gBl/BtvZaJcZQOFaIYrK53c4yZqYsGeWA3+gqe5y3aBXbNGHtLcduIFevxIKn2DbXzOm8Zw1kxSR6XvHs5u3TtIgua/di9czIQgKtYlzww6X45tE69xKskiQReXdoU+ZeXWQQOTkrULuYhBSZwO0kpa3IEeW57WMXradmpm1M8SjT3TVHjNG09C5J2VRKFqacNwd6tU0wjF9nkvWdwQkVP1ub/9OQE9q5irrj7SdxQVKo2+Y3TNXjukzB3Fz6Volb0XyCIHepllPqJm0H+xtUx9PMy2IPjfNoQZwJd7wbU0jdgTU6oItyEV2gFPwxjb1PQI7T9OD8GqvJW5QlqD7VYWJrcLw7h6PqpnWMuEw5FtIbP4WQdUJ623oUU91ZD8lcobenY1h5rFNL2cS3IlVzwdkIQOPr7vX06GCStIz4Az+ekrwPNA8CibsdHPMIf4NT5eOB5fymnU5rxop/hVPALriTI6dl6T9+HWHECy3Gc+EA0ghFQ0OiZ51PtM9iDYMXPabs9/eTiHk8/YEd0/AuoEcD+4uzOjrFJQXsv91R7r+3pO10ggOnN150ycX2N9nPt8sK7vxXhqgovTCN3pV4+BfpP3edwqoeqPcZZvV+7b/Ah4/QducoxHi5+bukrgBOKYdkRWBTvD7BGtdBPAGqwoHx9XAyGdnX4zOhYwoecjSeEYa9xI93PeaI9OrEIWxvv8OT4Xi0gkcnedZfF5GTGYVPnJMlmHLbD+XMCRkLrBPYFqpVezt2CfKnO3hT9OTGCqx0/5n7CeQ1qmLrmUy/1YQFOrlkh5NB7sa2+p+SfrORnICd3d1ncIUY0QHlC0qLhuEDDRjC884MWcPnqVUOQdal7AWmbcsSGichQrQ6Ot2DvyWbvlaYR6truPmf3hLy71erwHbhOSGWZvdmFzt+oFUZ2cMcn1EdYmU/vuqkbBMBM3rbbtwnzUDkBA/SUbXO+eq2eDy4ywgCou+yhUgII8Q0uVJppNVvuKciETRL4/E61LmzxdE40u0W59/Tq92wdXk/jxKCpEgm103hAtfWiEOynZCCggvlWWplq+Y9trnCY3rPAAJaLMs7sHrhuOa0zSrK34YWdTxdGIrP+3q9B/PIc2qzhKyff2ZBx5NLCbaMLWGFaQ3M7am+PJAMYbpZOma/Z0HjDlIDTNcYHvY3YZiyNrD5okvRS6NfIOBtAA+3yy6PY8++1h0i9U9RL5CbtUMjOYcJUm2CdHJ7hLv6AUbPlk3xKKxl4Dek8u0e+C/BzTYiucUvxY8yXCMdr9JGFQZRUVOE2s0ftZgHxCAxBdDnwu0eUH7cvoPhlgnpCntfhKn3aKwRqYduDoZ2UKP0BNwq+ITRsppecjSTP+7iOfGN/wuC0BtwDny5OhQjzB+7BAPjtucRI4VbWwpR1zEoLisOanIxEOUE9sUOkkhG/LA6rvHOMI2pXCjOOAHBVJtbEB2vNESmqmwQpmUeUtiKjrO1VRIVQQ0J0zQiMOPD1HiyuzepKj6p0qPEgpcIJ2jbK3vGIobkK7uj4/cIjh+6FFB6J0X9wfkRGG9YRJVTNX3SeN5vQyfDOga/x45a2T6SRmqpXHprzgY/aghnMKjqTSuG9J4xhk77NYxrCIgVOBTQDOb78qXOUui0dzclxrPMMrX2FbnnWaF/0RKQ510FgODTUNjcealIMAeQlbYmqRGt702IQBKce0/fhTwnAfjur1Trb80OFRw6we5Swa62qMUxaTUV99tTGmh2guM9Qz9ryuycQOQC4hyNijo+k8T59rcgRBVCWRi2ssa+1asWji1PbSPBBowCIeEzdy6ISMKPOBV5SpT/IWyp0JtdzUii6xlan26AWCIFdn9BGKENWKsG+QvcZSaM+Erva1FYjKbjzzmH1ex5guQfDLVcAcMY6Nf+61EI3lqRWpVEdMSq01/aNrXzejfs9EoVZLDCsMfk+TuiEtAXgJh1s17R6Fd499tHGJ6vK/HKBww6QkXNjK4e7ubgkru4V7Bpfx1KYndYP+IZ2cOzevLgm1+yOhryqwt2FmZnXaEmSDH/CV1YLMwGtbybuIjXFvZ2gbEawDNjjVXRnMUvoPVgJ+5N5aL60mujiNjR3VDOnIKjZ+XDUGzfNSZaFzvsauL9W8BrKHFAi4f52e/sQ+WiZMDAsMI7WwNucOSB20ev1uovxa6tsDUKgatu9l8gz7h4MBJJ4GAZgHH9NPtWIgBYnCl/bms8g4kKpNJt+sd6VkYq7/wdLUVC5mx2i668PSS0UBjzTmfV1AoJFRof2y+b9aMBT3+fvPjb3lILrqGy4qz/aJMoJfQPgoBiuz/vD4R0DzUFY0+inviIhuCtTzJfxTvZsYO3SmT4Tux8EGmAOzPnlGCFzEJRvT3ENqR+1wE5cnKKMe0wLQtH7Lo7Q2mUTv5KTYvjMNyeyze9rqmYPtvYnAZfbbhM+snkYbMf5Z9uETAkPoDYRkmcSlJknI4g90UKxE6foxayPDQXD0ufj23HNhOsu5eh7B8KG6NgVRMdR8J6S6AH6gIfO65tjqP3vYetZKJDZR45wS9upIRiWRbOHOdQJIXJkkuMJ1thZ274UFkzElYF+ILSPAG1FnUrT2106AmBFkTG+jtv2BqG9ffv+RNOV4+SqGLFjf67gqK+nXWRBJ/R2GdGYdmq13ZthfRkDT8X1cXt3xWBp1n4702zk9WKdsbrAdJfwEXT/mk8vtdd3ikAQgBXfQNv53X6HRC73crtDQu+cPE3poI93FRYHGsp3wRUnooQlrjuXEem/1gKV6/1Fr7FajUarRm8xbpYtWlMjSqeRa2iF7eqAewhFX0VuLlT03i5GFMy2UIpq9kaDOfRIZRPQCecHy8ar6ciVtoZIKoECs3E/lz8nH1Mv3kJhRui2E7xAzdW8WtXcoYSsqlWl5biMeBXaZ8J9JQhu883fwBact/14IVqshWXwvMFcvTuUNdl+B7c9dqVqgwa+Ylx/N8Iyx+Zz0m5vyJ+TR2zFjVpoCt4Gbo0PkXpjEBhw5DOyOh/hkowO0ZVjNJohbEfprx8nzziEG0R1OuYXc/gmsXyDJ7hyQVKzIxTzKWxZAl3B/nW+fP+bExT3fAsv6GG53SslLCD5xZx0iKh6mbtKEJVhBOfbP/k1kimBZ9Pt74k4CSwa8kvVlyrxjHNe0oZICeq+gnSD00ubGX7LVAwyIWwLRWSeczjLEja32A2Zb7wgiyo0GyxwtrEVuu/KKh+El5JtCPrERbSV8o3IVy5IKp4NOg2fBmC+NApdZegb7BUUr2iRJ8L1OW6bLFfiTJXS5ii555NqRIEVy3dhwfemVptt76LINxDo8etah/gcAot8sFa87DKvznHy34MTwwrr89qwFCPDcYwAnRffw0VYB1tFDrSDOeFavlbsAlB5jktp7vYUCw6dmq7X2hPLiBKYwG5gZRtO5QrfeYnmdyMXrPxAd5asovPXPfaOvb31LVFmS5kEULhHLagRlEF3LgweKGvgs6jC2DVVyFHISVKsoLivnAvDxpcTw0HnPz96qKCVl1H1ieM2DiA4nvAUGuUQDP8ghA98dR86OHIPD8lCV0U57sZ0ZRbCo1ERdJ6Fgo/0oaJ3qv94Bx0uBj9etxSgXV5/2C0xgXEVP8y8s9aomrA+T6BAt9q3h6XvIta7YPtJ+Iigxm9oe+UEOHTYJlFIzeMZ1lvLneKOroD3LFD27oshyOAZcBHxNP/HKWXMRtqSZcmxd5yCjCeheIh7p+l9GwdqAS0nVBqOC/d3l5PoXvaCOBWPXhk0IpTcPUQ4R5jYYECk+6yRn/c6ImA/KV8x9IMFt55gpwWqNUys2B1dGWXd+Xmny/3XidAP9MPOEUZC8wVzyc0f4dE149aUA8a5UCf/gLSieOcEI5Cyn/V/S4ntJgx0hbAV4Lfdi4wGgfpfVW08SAlqdNtKobOpm2CXD6/+gVJm2atWzRFcu/ZdmYqNUjwt7kOKQUHsePcj+kBCbRbflsXAGu876GvM2kEJJ6WdxBX2W+V6LkKvKdmByehCjPbNQAL0+nw2AhKDQjGKyxQA694DlB9sxLkq2B+oU1O3BYWwE+hvkScieCZM8QNMiXpJeOIXEr4ScS+V8JGI4JnYfMDDl/2kqGa8q+z9oY7JC/AfVuJO7AwFt6otku4WRlPhCSvLlMeVuBP6usjtqFwj6dZGeYiuESbhVHzEIPIhdYTuf/KTRySpRVSwD83WxCmhg7CUpK1nQX0NTAJeICiH2JZ4COpJqwhzElZolZ2inJJTeC68Jr5MPLocuR0ie0qUeGtUJD8nHk9h2wTqCMWI7wGGI0E/48ZpGDK6Xrn2KKXDKYXZ92gCYMe/S04ofqUod4hT4seTOenGd6qaoHwkZLM+nVPHh5NiHNJdpBQ5ea+TUvzcpLmT0uXktU6MokxTVHc3TmnpvTtKcCOlYQt5IY3zqXJ/PglwIyVsg/vjNfEhPjwaYu20IwRF+e6kv5EsNPnk7b2ewykUMKPUjDsP1JOfIKX1oV0OroyM9duT9pGFVP0nQSkax/aTGUHFt0qaE7r9DPm5UOaKn9O7EuFnIHFlro5e4PEEFMX43vm0p6WNZtLjANF0udPH+fAEi8EP+UqySkKaN6lCZ/cTInfDKuE4rN8N0s9EM+F4uee9xM9GEmUEN/DN8G9MH0lOmePVpe8t889EK5Oglrjd5vajSNKHst+O+KNIcGCybULtzyK5hZIr+fCvew4SCzDLv2M3YSR0Ca46+jXLRCV0UQHOuf8eNJPQ59Vu+Bc9EwnEmLXKrzhub3h5eFi88ybsX4Fy5aGxeXx2/isMPSdaj9iyvJT9RWr8hmYmNile+m36wUIz9kpJv8Nr8kIzXokYn+V/6Soh1IcxfClezYx/mRZ3oLWMbiVpmV+o8ex46WWjbSpJXf66c+kO/WGUUbzqvPvy009MgFYjQ6gqeFn988vlzkKuWSGaGpqtzse/ybkIQX8phUigJMuD7m9Wd/fIva4GKqTlbQNKssqPxr9fN7iRqy+WGU2VM/Z5C+ifWVXLVnrNf0jq7Mi3Fst5tVqFzOQshKxq8L8ylV49/29JnRvl125jtKwMh8NKZbTqjVv/Nh0bcvly/uU/w+b/SBH/A9GJbjb0XlkLAAAAAElFTkSuQmCC" parent="M72GEIVWZqwMl65Am_JF-2" vertex="1">
          <mxGeometry x="13.920000000000073" width="82.17" height="93.08" as="geometry" />
        </mxCell>
        <mxCell id="RbsXL6IKzqATdd5hzsG_-16" value="Neo4J Graph DB" style="text;html=1;align=center;verticalAlign=middle;resizable=0;points=[];autosize=1;strokeColor=none;fillColor=none;" parent="M72GEIVWZqwMl65Am_JF-2" vertex="1">
          <mxGeometry y="93.07999999999998" width="110" height="30" as="geometry" />
        </mxCell>
        <mxCell id="M72GEIVWZqwMl65Am_JF-3" value="" style="group" parent="1" vertex="1" connectable="0">
          <mxGeometry x="684.9999999999999" y="193" width="80" height="103" as="geometry" />
        </mxCell>
        <mxCell id="RbsXL6IKzqATdd5hzsG_-7" value="" style="shape=image;verticalLabelPosition=bottom;verticalAlign=top;imageAspect=0;aspect=fixed;image=data:image/png,iVBORw0KGgoAAAANSUhEUgAAAgAAAAIACAMAAADDpiTIAAADAFBMVEUAAAAAAAAAAAAAAAAAAAAAAAAAAAAAAAAAAAAAAAAAAAAAAAAAAAAAAAAAAAAAAAAAAAAAAAAAAAAAAAAAAAAAAAAAAAAAAAAAAAAAAAAAAAAAAAAAAAAAAAAAAAAAAAAAAAAAAAAAAAAAAAAAAAAAAAAAAAAAAAAAAAAAAAAAAAAAAAAAAAAAAAAAAAAAAAAAAAAAAAAAAAAAAAAAAAAAAAAAAAAAAAAAAAAAAAAAAAAAAAAAAAAAAAAAAAAAAAAAAAAAAAAAAAAAAAAAAAAAAAAAAAAAAAAAAAAAAAAAAAAAAAAAAAAAAAAAAAAAAAAAAAAAAAAAAAAAAAAAAAAAAAAAAAAAAAAAAAAAAAAAAAAAAAAAAAAAAAAAAAAAAAAAAAAAAAAAAAAAAAAAAAAAAAAAAAAAAAAAAAAAAAAAAAAAAAAAAAAAAAAAAAAAAAAAAAAAAAAAAAAAAAAAAAAAAAAAAAAAAAAAAAAAAAAAAAAAAAAAAAAAAAAAAAAAAAAAAAAAAAAAAAAAAAAAAAAAAAAAAAAAAAAAAAAAAAAAAAAAAAAAAAAAAAAAAAAAAAAAAAAAAAAAAAAAAAAAAAAAAAAAAAAAAAAAAAAAAAAAAAAAAAAAAAAAAAAAAAAAAAAAAAAAAAAAAAAAAAAAAAAAAAAAAAAAAAAAAAAAAAAAAAAAAAAAAAAAAAAAAAAAAAAAAAAAAAAAAAAAAAAAAAAAAAAAAAAAAAAAAAAAAAAAAAAAAAAAAAAAAAAAAAAAAAAAAAAAAAAAAAAAAAAAAAAAAAAAAAAAAAAAAAAAAAAAAAAAAAAAAAAAAAAAAAAAAAAAAAAAAAAAAAAAAAAAAAAAAAAAAAAAAAAAAAAAAAAAAAAAAAAAAAAAAAAAAAAAAAAAAAAAAAAAAAAAAAAAAAAAAAAAAAAAAAAAAAAAAAAAAAAAAAAAAAAAAAAAAAAAAAAAAAAAAAAAAAAAAAAAAAAAAAAAAAAAAAAAAAAAAAAAAAAAAAAAAAAAAAAAAAAAAACzMPSIAAAA/3RSTlMADh4vP09fb3+OmaOquLzM0d3e7vr5fm5eTj4uCCVBW3CHn7Tk48uGWkAQNFd0ka/oc1YzDw01osfr6sahfVkGK1WA1f3mu2Y8DBRHeqzcq3hGEUl8ruHge0giAgM3te138xpi7GEY/ohEBain9PcXaftnE038BPIcswkjjYshAQfYChIW7xsf9vjxyM49IHb1MMrQKCdonaQLJExSlpy5Gc/N29/i1sSSYDKysNp1cRXwiYVqvkKDwcA7OZSgmo+CcmxK6ZDT0sJrqZellZuTQyy2S2PDZYwtMTa6KnnUninZUVTlJrdkyZhQU9ddXEXFplixOh0457+BioStvW1+jL/cAAAakElEQVR42u3deXxTVdoHcFnGQAiG0uIEKcPughqQQiug0qQlKchaQaQtNCBLWqFMtS20oI1UaIGKZVFkEUGWAo5YxBmQERhR0EFHx0FQUAaRZdxBxHFe9X3P25ZBtia9595z73Ofk+f7F59PQ3LP73mapPeee85VVxFCCCGEEEIIIYQQQgghhBBCCCGEEEIIIYQQQgghhBBCCCGEEEIIIYQQQgghhBBCCCGEEEIIIYQQQgghhBBCCCGEEEIIIYQQQgghhBBCCCGEKFKnbr36v7na0qChtZGt8TX2JhFNI6tEsUrNqv8ZEdHEfk1jWyNrw2t/62h+XYu6daCPmWgV3fJ3rVq3advO3r4ZU6FZh+vbtb2h9Y03tYyGHgnh0vHmW251drJ3VlP1mnW+vpPzti4xXaFHRkLrFnvjtXG3dxdX+Mv16HnHnXfFdoMeJ7lCr3iX25aQqF/pL9Hb4/Qm9YEeMzmn7939+kcYVfqLJA4YOGhwX+jRh7fke4YMvdf40l9s2ND7hneEziEspTicdoDf+xpFxFliUqEDCSNpIwaNjIQu+uXS2/li06CTCQcpXpvpin/eKI+P3gn0NPr+gWOgi1yb7rax46BzklJajNs+Hrq6CiX4MzKh85JLt1seMO37fs3SJ3ShEwWCJDtsE6HrqUaWxzIJOjv8+v7+mmzoSqqX7XnwIegEMYvOsam6jmcmuR4HfRaokndPo1HQ1RNjctzddIaA1xQf8DlesXr7U6ATxaSXKz8XumSiJXocBdC5IjF1mo5X9CH1ePgR6GwRSLJJ98t/QaInpxA6YFMLOJpA10hvj1qmQ6dsWkUNTH+mX4TudyZDJ21Kj7lnQJfGKKOcM6HTNp1iZwl0WYzULK4ldOKmMtM5C7okRouy0rvAeQ/5w+q3/7xmVrpWVKWOezJ0KaDMbkC3GKQ6BN7Ag88YS5hfJRgxB7oE0Eofh64BoClxWCZ56Sl/LnQdgOQ9UQadvTmU3ZoHXQsI8+ZDB28eC2Khq2G4Ar/E13z4ZTvDbNrQdU2hIzebiCTomhgoz02//ldIdPaCrotRFtqhwzan65+ErowxnqIv/0GUeaFrY4DoRdAxm9nTi6Hro7cl0k/50WbBVOgK6Wspslv8jDd7GXSN9NSPTv3WavwT0FXSTdoz0OHisFzSe8v7tINOFotnpVymdsVK6FzxeE7CuULjEqBTxeRR6SYM1l0FnSkuqyW7i6w4AjpRbIZJdUKg7hroPPG5dwp01cR5aC10mhglFEHXTZSCcugscZojyYWBtKHQSWKVL8dcwXXQOeLlhK6dCK2gU8RsPXT1tKtH0z80yNoAXT+tiugEgCbDsO9JMhA6Qew6QVdQmxuh88OvC3QNtViRDh0ffmMwbz/wPHR6MvgDdBXVWwadnRyaQ9dRrV4vQEcnhwEB6EqqtBE6OVm8CF1JdSo2QQcnixk4Twa8BJ2bPDZD11KNOmGz8Kf+NmHcuJ6+AQh0G3Q1+WXSLDCB2uNbO6ALdGZycUHXkxudBBQK3TWhIvT7vZlLM2z7D74MnZhssC0e8kfowGTjga4on+gs6MBkkxUNXVMuf4LOSz71oWvKZQt0XPJxQ9eUy1bouOTzCnRNuYTF/m/G6g5dUx59odOSEaYzAdugw5LRn6GryuF+6LBkhOk2sX7QYcloEHRVObSBDktGmKYFvQodlozWQVeVw3bosGTUFrqqHCZAhyWjCdBV5bAcOiwZ7YCuKoed0GHJaBp0VTn8BTosGWG6GnQrdFgyeg26qhxc0GHJCNNWIi2gw5JRPHRVORQkQqcln0RUc8KGQcclnwjomnLpDx2XfAZC15TLLui45PMydE25xEPHJZ+F0DXlUtgZOi/Z9C6ErimfRtCByWY7dEU5vQ4dmGwGQ1eUUx59Bgj1Brq9I2ibCKF2Q9eT283QkcklBrqe/OjuMIH+CF1NFZZChyaT4dDVVKFwD3Rq8ngT2UmAcxzQscmjFXQtVUm1Q+cmi9JU6FqqcxN0cLK4DrqSanWCTk4O/aHrqNqSWdDZySAL8UbyT0CHJwOEC0X/KvUt6PTw65kGXUUtUkZB54ddWUvoGmrzW+gAsfsrdAU1KtwLnSBumG4JrlkfOiOswZuLoeunXUvaO0i1ybhmggaRkwudI1a5S6FrJ4YXOkisdkFXThQ3dJI4DYGumzg0QVCFt6GrJlAarRrFrRHSa8BBOoAWjuP0Drp54KEV/g06UVzeler3v7oD3oPOFBOrdPWv7AD6W0AxJ8pJoLVaHwUdLA7Z2PYIvFKQrY4Hz4bOFoNNf685vQB0VTkE292kBa0dVKum7wcJry90VTkUB+2MxtD5mt0/ioJl9wh0VTm8H/QnhT5aQS6E8f7gX/9bQFeVQ6iJ7Dl0eTioyH0hgrsJuqocPgj1w7n7oXM2q63FoXI7AF1VDi+F/GmqpRl01GaU7Q49//dD6KpyeKCWZU0/ehM6bfNZuyF0ZgV7oavKwVbbF5bpu2ma0CVypxXUElk9G3RVeRrgwVofctAOnbmZNDlUa2Avo2qAB2p/TJ5lInTsZlHi7lV7XgNRNUBnJVczWnqgkzeHj5coCKuwB6oGYJ8oelzOAOjw4a1yKYqqBcPVAIeVPTDTEubXhya6Fe4DMQRZA/xT6UNXHAnjc8O5i8YpzWktsgZg8xQ/+FPbeOhCAPHUUxzSBoatAR7meHhsPnQpQMofyxHRNHQN0Jlrj6M/lUOXw2jlv+PJJ7ozugZgnPOakvLD6YOgPIcvnacYvgY4yjuxtV5cmJweTsyv/bzfpdJeQNgA7DPu//bpoizo4ugvazn/Pd/HGMYGsKuY215x33HoAumrfT8VU/tSS1E2AHOo+a9pORKfILY7MtVkMpbhbID2Ktc3id0xGbpSephtvVldHn2OI20A9TveR7ukexuwe/uoTWMLw9oAZSnqn+IjZ3fomonzxs549UlMLUHbAKxcyz2OaRlxUiwzWWLLUfXJ/1+przC8DcAs2p6nwJWP/H7C3HJvN20Z3Hb+qVA2QNkJrU/12IGTaOcQzxr5rwqt419YgroB2OcB7c/WtVX/Muha8ps48K462sceuP7XJ8TZAOwLIU9Y8OWODtAV5XHvF81rm+WrzI4Lz4m0AdgH2p/unBSLB8WHQa7dHSNqgYeLN97C2gBZKk9/1KTrV898DV3f0Na+ukzAG/95sRdfG8HaAGzNFKHPvaLV8gjoMtdswLs3rhA61CmXfOyhbQC2J1n08xd/80wTU107zl3wt2/rih5lUcIlr4G3Adh+MV+ILlXnVIPGpphSvOnktRka/9av0fTTl74O4gZg+Xqtejg6x53fA672s8udjnidVnRLG3rZi2FuAPadnutephzb3GmVwZPLc1cN3fKVnou2ZF6RIeoGYAO1nA5XomDDN/52EQZ8McgekO//dgPXlFcVeg294oVxNwBrp3dk1TJTMrx+m12XmWXZER6rzxWjx/eZK/TqdOXrI28ANtKQ5M5Jm7LtzMZ135cK+XrwRun36249c3amgfv3TT9Zw3FgbwB2e4XxB5I5et49jlunxf2j59reJUyxkt5re46M+/A2xz31Ruv92VWDSZ/XdFDoG4AN0HxpUJvocQsPZexzrfduPOz3r7NWamSr1KjqX+v8/sMbvetd+zIOLZwUgD3OhU2ZnA3A0tHug26ks0GmQknQACxrPfSRmd8HwbZcl6EBGIsz8KsgRgFr0OjkaAD2HKYlbw33wxwmewOw7oOhj8687h7D5G8ANt46Hfr4zCnaH/J8tjQNwFjCQegDNKP3F4ROTaIGYFFuCTdF0qbQMouFTwMw9pYU+2KL80ntS6TI1QAsyh+APkrzyPTV9usvXwMw9gKmHRB0dTZBSV7SNQBL/KIC+kDN4LEdyiazyNcAjM3wBaAPFVqmZZPCsGRsAMaOLoU+VlgZ/1QclZwNwNhITLthCTbvJEdQsjYAG28DnicAZa6VawqjtA3AWHZcGF4hmmLN5ktJ4gZgLGu32PvHTO8HJ/fEVakbgLGouDA6N5jCX37pG6BqBVWe5bMRa6FuTVzpG6Dy62Dj4aJurDet1NefVbkqNqYGeFrdECut8nWEPng99fEqOutbo0bQB8/hbdWjZGzTNA2rC5rbkp1abmd+G/rwOTysYZyVXwbKvRJOHQ24PNp2RHhJ+zEY5lpNI600wyrZ+cGFfs23qQ2BHgOHXVoHW6ncK3xhEShFT/UUEMjL0MPgMFzAeBmble9Qud64mUTn2MQsbnYKeiQc5goZcaVNRzL0XFpCd3mn2gpbxqYYejAcUgXeoJ8e50L6PhCd4ewsLocSVPNom4gbeKXJe7vosQqTruqcsYld63wB9Ii4fCF07JWyy30x0INSLsWbr2CWJ5+/QQ+Kyy2ih19ltdUlcBVOvRRk+HVZzfQY9MC4PKbTLpDZdn9GAHpwweXF+Dw67Xw3vgJ6cHyUT3XjNvHZQYdM+KdB3r8Pf6zjqvZNoMfH6Qb9oqhugnKnS8UGfHqpk+HOVzq5V6Ut0GPkFK9vHFXGr130wTyAJZwulXnwg0VrDdj2+FPogfJaqX8mVaIS4ixJQJeOMuMdznKOtce0eA66ntxu0z5o5V2w4LvDv5lq4ImS1CVf9pvQxMj9rF6Drie3SYbvA11mv2PQsXo6nzXsM+/YoLjnDPq1vyBrEnQ9+e3QPmxVem9ddPiWszMFvx+kzTx7pt+Rt34EGpSYnZeMdcLg9bsvEzVsf6M2f/1s2wlNJ5G7nUj6bFebp/cPg92+MLcldDXVGKp94EKU3Dsnv+3OBhZH8+tazE2u5SNicfLcFtc1v9rSYGfb/DlrDP8YC2IgdC1ViYF9CwiqLHLYALv9tKdSu6qlYttV/eu03T5gWKRJtydMRLqm0h3QwcniCHQlVZo5ETo5OYwaDV1JtRpARycHTLNBLzXdpBv84TIA8Rz5bSb9HohJYn3oKmqxGzo+/D6ErqEm0epvhSPVvkb8AVDlkPC5ceFllsCtt2E8BR0hbv+Crp92y6EzxOwO6OoJED0fOkW8SpF/ATjnhw7QOWLVQZKVsz5Jh04Sp03S3CI/gi4KqFCSBF03cXI410QkjOV+Bl01kbrAzqhBKLcVdM3EyqETQlyaLYOumGj7zDK9CoVmX0LXS7zXDZ9LjVfZcOhq6eHQG9C5YjFmG3SttKp5wdepR6GTxeHrRzhCNacge8MWbYXOFoPTQW57xrRSUrAbmaLbQqdrfssDQcIbB11VDlOD/sRBXwVDmuUNGh2mjXXmBf/RhqbQGZvZmhHBk0O0SNZV94T4Wd9noVM2r8YPhQhuH3RVOVhC/bDQa9I7sKBl+ULe0oxpiYBnQv/4k1LorM1oT73QqWG6Rdz2UOifZ7rphoHLjHcGQmdWgWnLGFutNzM8rstiingl1Hry7yZUDXBnrQ/J9NH1wV9F+QO1BuZG1QB/VPCglv+Bzt0sTn+iIK6tqBogK1rBo1If1LyNigzeOKBkPaOCWagagP1J0eM67gz7mUJR05Ttk3cK1b6BNsV7nJ3Ih64ALE+8wqDeRdYA6b2UPvZ1sZtLoLJS8cSPQCSyBmDNFT+40BWm8wRWe9MUh/QZrq1jbXyHm3cgDG8eWnOAZ837/ugaIIrrtqZoS5i1wJrfKvk76Vc/RKFrAN6VLTIdYXRuMMLCVf6rrtrJ8DXAZN5twFNzwuQ+4iYO5Z/95xSNQtgA7DD3fyu8+6QBWy/AShw5mH925xCGsQEiH1LxP5f4Z0CXSE+jrErO+l4ueQzKBmANVf3frq9Ju7rgqtbqtr1zMpwNEKVyGmNqklXCqaOzbBkqZ/Y/GYW0Adj3qp+go1ey84Nf+ypUh9GOYW0A9hsNz7HNGgldNVHS3/6zhiCWMbwN0OMxLc8SyImTYGmRrHyX4usiNel7fgdyjA3A9mp8oq5jPagXF8n+eL3W7Y77n38ulA3Aumh+riKHDen7QJbHon2zrxt/fTqcDRC5RMDTTc+Jmw1dTV5l+Q4RW523vHBaBGcDsDfF3NSal+S3Q9dUuQhrTkDIsBfvufCkSBuAfSfsWed6bQjeCEo8voXChnzxtktYG4BZtD/fr6Jv+p/9zaBLHFyzt9z1AwKH++LFT462AXK1nA2oweLBbT434Z8G2bffcGq69tFd7MtcKRqAlTwu/AUWJ1ls3aFLfsFsjzunq/BB/vnSm2jxNgCLjNfjRQo/vX/5SvBp5VGly+//VJflez667Loo4gZgHYr1eqXAzQ9arwe6ySxr/hfemwN6jSzl+GUvh7kB2LAUPV8us95dN/xhgIE3HCeu6rT5TItMPce0ZM3lL4q6AVgH/fe/nh7jaDNwgc5nDUetHNjmmw367+PwZPsrXhp3A7De4v44Dm3Fdfff8MDp9oLfD3Lbn56weezjRq3U9cmPVx4C8gZgnY1d5CizOOnbQa8OLT86WUvdJx/dP/S9Qa2SinV9u79CbE2LqmJvADZqKczBFNQdkbO+tdt5x/dbm6yOrOUjYmLk6iZbv9++2916/dIRP3BO3haleY0Hib4BWO7voY+r2vTk4qkxMWczKu1zVdpX9a+zMTFTi5MFn8hRaVcuk7MBGPtJyZ3wYS61YZDwZGgANrII+tDMrugkk7kB2L2x0MdmbvOCz4mXowFYlgSboernmxBraErSAIztwLTuuaEWh9xmV5oGYE3Rb4ihj9jQC2XI0wAs22/seRUU8ny1XNmUqAEYOy1irqhUWt5eW2ZSNQArcWu6W0I2eZbaL2LJ1QCMNTkEfZTmcdCuIDDZGoDlNqQ/B6r12Z2rJC/pGoCx4w5MW6HppNA1TFlaEjYAY/O13DYrhZhypVlJ2QBsfBym3dCEW2FVPnFFzgZgbNRfxE+oRqLrllEcQcnaAIyl+8xxHd5g0y18mynL2wCM9fAFoA/ZaJne45whydwAjA2zhNW7QMCxijsiuRug8l3Azbu0KFrdLLy//eHQAIzN2FIBfeBGeGzzJlXxyN8AjGUtqqf9xc3tYFu1N7JhaoDtKsdYye7gWUYfmdQcj/pk2kIfPYf31A+TsdUbNS0uZ16TfApP+tZsHfTxc2ijZaCM5Xpc0r0NpGbYNN7K/jP0EDj00zbUSu39c6EHIdJoX1PNkfigB8FhrObRVr4NfHy1iHXWTKDr2GtE3Kp6NfQ4OGwTMF6mfZVVM+glbL3bf0MPhUNfMUOulP7FKcQTSDMH70gXFgWqm6rGCBs2Y5E2Rx/o8agRnWMVuTdyD+jxcHlF4MgrTRzYSs3+M4D6fvtLmfZxX+w/0EPi8hexg6+UaPcnYbm3ON6nwxrnbuhRcfmd8PFX6bz9FtOfI5p05g6+y/xK1YceGZfoLF1CYFXrMLtM+22oW4bfrte+d2UB6NHx+V+9GqBSrv3hnL7QA7xcRfMPS/VcqO5j6AFyekrHLKr1tllizPKdIMVhTdB7x0tsd9UXGbGm94yTm5cBnzF+5KvNjdVd3uczKxm6orz+YEAq1dI9L3U5wbsZrwBpT5756RrDNjYbCl1Pbi6joqmWVfr0oJwUg+4zSk1pfvidlcYuUPwVdD25ZXYwNKBqE+0P/Lw+SftGTUGNe3zs5r3PCT7Do8QahOfDXzM+pv+aXDqwoWVZrMBbjlYc+qr1zv4reW7jEKs1dDVV6Aa+DfisVa+8s/u+sWpX/CyoO2Lp/fft/u6VAUDL0V+QjvJiyA3QsV1kYvs9+/Mbvbdlo/dq1+sZsQdTUkYnV6pe9bug6l+jU1I2HMrY51rv3bjlvUb5+//Z3kybFW6BrqUqySIvCYa1SGRXws57ETo4WfwfdCVVyjyqfeyEsUcR/glwTnPo6OSwD7qO6hl2OlBmv0BXUYMKfS6Nh5XuOp7Y0t+X0PHhdwy6htrshc4Pu3egK6hRMv9CCOQiL6BfNOEjM51RQ2fi+9D10+4u6BAxc0BXT4Td0Cni1RC6dkKk/QKdI1bPS3KTfMFb0Eni1FOahdO6LoDOEqM96OaBBjdF09oo4SliNHTVRKpLpwM4rX4EumZijUuAThSXozOhKybapD3QmWLytVTv///tADt0qnjMN/1N0Gosfh46VyxOdoOulT7SXoVOFocdkpz/qcFGPW+glkTii9BV0tPr6dD5ml36cOga6avufOiEzW1lCnSF9Bb9LnTGZhYnzen/EA7QFJEgJn4AXRtjPKJ4r8TwMv8EdGWMkufTuHK6jLL9aG8AUuEsXRy6zAuY1oIWoMBtxCpSaGQ7w28n9RafQ6duHqUx0NWAkPYi/TlQbZQFYJEzUxgdp/fyigiMtxVD1wFQbE/o/KHZk6BrAKvQ8SN0CSD19ppluVs4fe40YqlVU9o0BOXqX8IV+QGWXoRX5pRy3o8qFX7wpfiMFmWVcNqfBsXOsHoXmBW3BDpx06lwgy8tapTJTvrtr0nHISK3WTOtN/p1hU7atAKuOdDl0dtKbwF0yuYWEyd+xzXTSMzPgM4Xgbk/Sbq4XGd/OJ/05ZGWYZPubSDR4wqnCR+azfSthi6ZSMf9kt3sa4C0U9tnQ9dNjE1H/k5n/FWJzrGhnzfULN8RfpN9BCp68GPEE0ijnj1g2n1u8Uh2xcHt1qRBVr63Ajo7WSw+9jSy/We6N1oWDjf5GCg1xleO5d7iBH+GvHd4Q5p09QOmP0fUeYKDLvPrKcVrS4cucjCTPb4Yg7avDWtpMbc+3x262Jfr8f1tB+mvfQONdjntZvlOEBHnjafffAAdh/f7BfiMcdP+/e6my/ugijKe2Hs01/jS5z46YePfJVrOF7fMeJfblmDUR0Jvj9ObRH/mm8/imFvua7u/s36V//GtI/26bKDSm1y3g8de3P3LfIG3HPX+vP/O1l/No9s4cAksqX+j5ecj+XPWZKmpesm9c/IX/Wy5q/7UAPRIiFaLZ76ftPTbXUN+sm63jfTML42I6B1ZqboxSqr+dTwi4rnPPe1sba0/Ddn17dKk+Jl0EZcQQgghhBBCCCGEEEIIIYQQQgghhBBCCCGEEEIIIYQQQgghhBBCCCGEEEIIIYQQQgghhBBCCCGEEEIIIYQQQgghhBBCCCGEEEIIIYQQQgghCv0/YzCgfZSrNtsAAAAASUVORK5CYII=" parent="M72GEIVWZqwMl65Am_JF-3" vertex="1">
          <mxGeometry width="80" height="80" as="geometry" />
        </mxCell>
        <mxCell id="RbsXL6IKzqATdd5hzsG_-15" value="MySQL" style="text;html=1;align=center;verticalAlign=middle;resizable=0;points=[];autosize=1;strokeColor=none;fillColor=none;" parent="M72GEIVWZqwMl65Am_JF-3" vertex="1">
          <mxGeometry x="10.000000000000114" y="73" width="60" height="30" as="geometry" />
        </mxCell>
        <mxCell id="M72GEIVWZqwMl65Am_JF-4" value="Amazon S3" style="sketch=0;outlineConnect=0;fontColor=#232F3E;gradientColor=none;strokeColor=#ffffff;fillColor=#232F3E;dashed=0;verticalLabelPosition=middle;verticalAlign=bottom;align=center;html=1;whiteSpace=wrap;fontSize=10;fontStyle=1;spacing=3;shape=mxgraph.aws4.productIcon;prIcon=mxgraph.aws4.s3;" parent="1" vertex="1">
          <mxGeometry x="49" y="430" width="80" height="100" as="geometry" />
        </mxCell>
        <mxCell id="RbsXL6IKzqATdd5hzsG_-23" value="News Feed App" style="text;html=1;align=center;verticalAlign=middle;whiteSpace=wrap;rounded=0;fillColor=none;strokeColor=default;" parent="1" vertex="1">
          <mxGeometry x="259.95" y="140" width="144.9056603773585" height="26" as="geometry" />
        </mxCell>
        <mxCell id="RbsXL6IKzqATdd5hzsG_-32" value="" style="shape=datastore;whiteSpace=wrap;html=1;" parent="1" vertex="1">
          <mxGeometry x="525.6149056603773" y="140" width="36.22641509433962" height="34" as="geometry" />
        </mxCell>
        <mxCell id="RbsXL6IKzqATdd5hzsG_-58" value="" style="endArrow=classic;startArrow=classic;html=1;rounded=0;entryX=0;entryY=0.7;entryDx=0;entryDy=0;exitX=1;exitY=0;exitDx=0;exitDy=0;" parent="1" source="RbsXL6IKzqATdd5hzsG_-25" target="RbsXL6IKzqATdd5hzsG_-32" edge="1">
          <mxGeometry width="50" height="50" relative="1" as="geometry">
            <mxPoint x="369" y="410" as="sourcePoint" />
            <mxPoint x="419" y="360" as="targetPoint" />
          </mxGeometry>
        </mxCell>
        <mxCell id="RbsXL6IKzqATdd5hzsG_-59" value="2. Find location from IP" style="edgeLabel;html=1;align=center;verticalAlign=middle;resizable=0;points=[];" parent="RbsXL6IKzqATdd5hzsG_-58" vertex="1" connectable="0">
          <mxGeometry x="0.1055" y="-1" relative="1" as="geometry">
            <mxPoint x="-10" as="offset" />
          </mxGeometry>
        </mxCell>
        <mxCell id="RbsXL6IKzqATdd5hzsG_-60" value="" style="endArrow=classic;startArrow=classic;html=1;rounded=0;entryX=0;entryY=0.5;entryDx=0;entryDy=0;exitX=1;exitY=1;exitDx=0;exitDy=0;" parent="1" source="RbsXL6IKzqATdd5hzsG_-25" target="RbsXL6IKzqATdd5hzsG_-8" edge="1">
          <mxGeometry width="50" height="50" relative="1" as="geometry">
            <mxPoint x="439" y="410" as="sourcePoint" />
            <mxPoint x="489" y="360" as="targetPoint" />
          </mxGeometry>
        </mxCell>
        <mxCell id="Sg8ZX70EvNhemciQKm6P-6" value="4. Get Followers" style="edgeLabel;html=1;align=center;verticalAlign=middle;resizable=0;points=[];" parent="RbsXL6IKzqATdd5hzsG_-60" vertex="1" connectable="0">
          <mxGeometry x="0.1264" relative="1" as="geometry">
            <mxPoint x="21" y="12" as="offset" />
          </mxGeometry>
        </mxCell>
        <mxCell id="M72GEIVWZqwMl65Am_JF-8" value="1. Post request" style="text;html=1;align=center;verticalAlign=middle;whiteSpace=wrap;rounded=0;" parent="1" vertex="1">
          <mxGeometry x="169.95" y="266" width="90" height="30" as="geometry" />
        </mxCell>
        <mxCell id="Sg8ZX70EvNhemciQKm6P-2" value="" style="endArrow=classic;html=1;rounded=0;exitX=0.5;exitY=1;exitDx=0;exitDy=0;" parent="1" source="RbsXL6IKzqATdd5hzsG_-4" target="M72GEIVWZqwMl65Am_JF-4" edge="1">
          <mxGeometry width="50" height="50" relative="1" as="geometry">
            <mxPoint x="390" y="420" as="sourcePoint" />
            <mxPoint x="440" y="370" as="targetPoint" />
          </mxGeometry>
        </mxCell>
        <mxCell id="Sg8ZX70EvNhemciQKm6P-3" value="6. Upload media" style="edgeLabel;html=1;align=center;verticalAlign=middle;resizable=0;points=[];" parent="Sg8ZX70EvNhemciQKm6P-2" vertex="1" connectable="0">
          <mxGeometry x="-0.0192" y="1" relative="1" as="geometry">
            <mxPoint as="offset" />
          </mxGeometry>
        </mxCell>
        <mxCell id="xplMvVODYy3nHeE6k87I-1" value="" style="endArrow=classic;html=1;rounded=0;exitX=0;exitY=0.75;exitDx=0;exitDy=0;" parent="1" source="RbsXL6IKzqATdd5hzsG_-25" edge="1">
          <mxGeometry width="50" height="50" relative="1" as="geometry">
            <mxPoint x="390" y="420" as="sourcePoint" />
            <mxPoint x="110" y="310" as="targetPoint" />
          </mxGeometry>
        </mxCell>
        <mxCell id="xplMvVODYy3nHeE6k87I-2" value="5. Presigned URL" style="text;html=1;align=center;verticalAlign=middle;resizable=0;points=[];autosize=1;strokeColor=none;fillColor=none;" parent="1" vertex="1">
          <mxGeometry x="140" y="300" width="120" height="30" as="geometry" />
        </mxCell>
      </root>
    </mxGraphModel>
  </diagram>
  <diagram id="efNH2wbTu-wwMYfuJqVP" name="ER-Diagram">
    <mxGraphModel dx="1242" dy="771" grid="1" gridSize="10" guides="1" tooltips="1" connect="1" arrows="1" fold="1" page="1" pageScale="1" pageWidth="827" pageHeight="1169" math="0" shadow="0">
      <root>
        <mxCell id="0" />
        <mxCell id="1" parent="0" />
        <mxCell id="39vFo_wKYirMrCAvpEiV-1" value="User" style="html=1;dashed=0;whiteSpace=wrap;" parent="1" vertex="1">
          <mxGeometry x="550" y="275" width="100" height="50" as="geometry" />
        </mxCell>
        <mxCell id="39vFo_wKYirMrCAvpEiV-2" value="name" style="ellipse;whiteSpace=wrap;html=1;align=center;" parent="1" vertex="1">
          <mxGeometry x="360" y="150" width="100" height="40" as="geometry" />
        </mxCell>
        <mxCell id="39vFo_wKYirMrCAvpEiV-3" value="interests" style="ellipse;shape=doubleEllipse;margin=3;whiteSpace=wrap;html=1;align=center;" parent="1" vertex="1">
          <mxGeometry x="290" y="200" width="100" height="40" as="geometry" />
        </mxCell>
        <mxCell id="39vFo_wKYirMrCAvpEiV-4" value="Post" style="html=1;dashed=0;whiteSpace=wrap;" parent="1" vertex="1">
          <mxGeometry x="1040" y="275" width="100" height="50" as="geometry" />
        </mxCell>
        <mxCell id="39vFo_wKYirMrCAvpEiV-5" value="Like" style="shape=ext;margin=3;double=1;whiteSpace=wrap;html=1;align=center;" parent="1" vertex="1">
          <mxGeometry x="550" y="540" width="100" height="40" as="geometry" />
        </mxCell>
        <mxCell id="39vFo_wKYirMrCAvpEiV-6" value="created_at" style="ellipse;whiteSpace=wrap;html=1;align=center;" parent="1" vertex="1">
          <mxGeometry x="490" y="660" width="100" height="40" as="geometry" />
        </mxCell>
        <mxCell id="39vFo_wKYirMrCAvpEiV-7" value="created_at" style="ellipse;whiteSpace=wrap;html=1;align=center;" parent="1" vertex="1">
          <mxGeometry x="1080" y="690" width="100" height="40" as="geometry" />
        </mxCell>
        <mxCell id="39vFo_wKYirMrCAvpEiV-8" value="created_at" style="ellipse;whiteSpace=wrap;html=1;align=center;" parent="1" vertex="1">
          <mxGeometry x="1200" y="130" width="100" height="40" as="geometry" />
        </mxCell>
        <mxCell id="39vFo_wKYirMrCAvpEiV-9" value="" style="endArrow=none;html=1;rounded=0;entryX=0;entryY=1;entryDx=0;entryDy=0;exitX=0.5;exitY=0;exitDx=0;exitDy=0;" parent="1" source="39vFo_wKYirMrCAvpEiV-6" target="39vFo_wKYirMrCAvpEiV-5" edge="1">
          <mxGeometry width="50" height="50" relative="1" as="geometry">
            <mxPoint x="460" y="350" as="sourcePoint" />
            <mxPoint x="510" y="300" as="targetPoint" />
          </mxGeometry>
        </mxCell>
        <mxCell id="39vFo_wKYirMrCAvpEiV-10" value="" style="endArrow=none;html=1;rounded=0;entryX=0.5;entryY=0;entryDx=0;entryDy=0;exitX=0.5;exitY=1;exitDx=0;exitDy=0;" parent="1" source="39vFo_wKYirMrCAvpEiV-20" target="39vFo_wKYirMrCAvpEiV-7" edge="1">
          <mxGeometry width="50" height="50" relative="1" as="geometry">
            <mxPoint x="880" y="590" as="sourcePoint" />
            <mxPoint x="730" y="400" as="targetPoint" />
          </mxGeometry>
        </mxCell>
        <mxCell id="39vFo_wKYirMrCAvpEiV-11" value="text" style="ellipse;whiteSpace=wrap;html=1;align=center;" parent="1" vertex="1">
          <mxGeometry x="970" y="700" width="100" height="40" as="geometry" />
        </mxCell>
        <mxCell id="39vFo_wKYirMrCAvpEiV-12" value="" style="endArrow=none;html=1;rounded=0;entryX=0.5;entryY=0;entryDx=0;entryDy=0;exitX=0.25;exitY=1;exitDx=0;exitDy=0;" parent="1" source="39vFo_wKYirMrCAvpEiV-20" target="39vFo_wKYirMrCAvpEiV-11" edge="1">
          <mxGeometry width="50" height="50" relative="1" as="geometry">
            <mxPoint x="824" y="590" as="sourcePoint" />
            <mxPoint x="920" y="670" as="targetPoint" />
          </mxGeometry>
        </mxCell>
        <mxCell id="39vFo_wKYirMrCAvpEiV-13" value="id" style="ellipse;whiteSpace=wrap;html=1;align=center;fontStyle=4;" parent="1" vertex="1">
          <mxGeometry x="470" y="140" width="100" height="40" as="geometry" />
        </mxCell>
        <mxCell id="39vFo_wKYirMrCAvpEiV-14" value="id" style="ellipse;whiteSpace=wrap;html=1;align=center;fontStyle=4;" parent="1" vertex="1">
          <mxGeometry x="1200" y="240" width="100" height="40" as="geometry" />
        </mxCell>
        <mxCell id="39vFo_wKYirMrCAvpEiV-15" value="Follows" style="shape=rhombus;perimeter=rhombusPerimeter;whiteSpace=wrap;html=1;align=center;" parent="1" vertex="1">
          <mxGeometry x="330" y="270" width="120" height="60" as="geometry" />
        </mxCell>
        <mxCell id="39vFo_wKYirMrCAvpEiV-16" value="Likes" style="shape=rhombus;double=1;perimeter=rhombusPerimeter;whiteSpace=wrap;html=1;align=center;" parent="1" vertex="1">
          <mxGeometry x="540" y="440" width="120" height="60" as="geometry" />
        </mxCell>
        <mxCell id="39vFo_wKYirMrCAvpEiV-17" value="Creates" style="shape=rhombus;perimeter=rhombusPerimeter;whiteSpace=wrap;html=1;align=center;" parent="1" vertex="1">
          <mxGeometry x="790" y="270" width="120" height="60" as="geometry" />
        </mxCell>
        <mxCell id="39vFo_wKYirMrCAvpEiV-18" value="" style="edgeStyle=entityRelationEdgeStyle;fontSize=12;html=1;endArrow=ERzeroToMany;endFill=1;rounded=0;" parent="1" source="39vFo_wKYirMrCAvpEiV-15" edge="1">
          <mxGeometry width="100" height="100" relative="1" as="geometry">
            <mxPoint x="450" y="400" as="sourcePoint" />
            <mxPoint x="550" y="300" as="targetPoint" />
          </mxGeometry>
        </mxCell>
        <mxCell id="39vFo_wKYirMrCAvpEiV-19" value="" style="edgeStyle=orthogonalEdgeStyle;fontSize=12;html=1;endArrow=ERzeroToMany;endFill=1;rounded=0;entryX=0.19;entryY=1.02;entryDx=0;entryDy=0;exitX=0.5;exitY=1;exitDx=0;exitDy=0;entryPerimeter=0;" parent="1" source="39vFo_wKYirMrCAvpEiV-15" target="39vFo_wKYirMrCAvpEiV-1" edge="1">
          <mxGeometry width="100" height="100" relative="1" as="geometry">
            <mxPoint x="400" y="390" as="sourcePoint" />
            <mxPoint x="500" y="390" as="targetPoint" />
          </mxGeometry>
        </mxCell>
        <mxCell id="39vFo_wKYirMrCAvpEiV-20" value="Comment" style="html=1;dashed=0;whiteSpace=wrap;" parent="1" vertex="1">
          <mxGeometry x="1040" y="560" width="100" height="50" as="geometry" />
        </mxCell>
        <mxCell id="39vFo_wKYirMrCAvpEiV-21" value="Comments" style="shape=rhombus;perimeter=rhombusPerimeter;whiteSpace=wrap;html=1;align=center;" parent="1" vertex="1">
          <mxGeometry x="1030" y="440" width="120" height="60" as="geometry" />
        </mxCell>
        <mxCell id="39vFo_wKYirMrCAvpEiV-22" value="" style="fontSize=12;html=1;endArrow=ERzeroToMany;endFill=1;rounded=0;entryX=0;entryY=0.5;entryDx=0;entryDy=0;exitX=1;exitY=0.5;exitDx=0;exitDy=0;" parent="1" source="39vFo_wKYirMrCAvpEiV-17" target="39vFo_wKYirMrCAvpEiV-4" edge="1">
          <mxGeometry width="100" height="100" relative="1" as="geometry">
            <mxPoint x="930" y="230" as="sourcePoint" />
            <mxPoint x="1040" y="199.5" as="targetPoint" />
          </mxGeometry>
        </mxCell>
        <mxCell id="39vFo_wKYirMrCAvpEiV-23" value="" style="fontSize=12;html=1;endArrow=ERmandOne;rounded=0;entryX=1;entryY=0.5;entryDx=0;entryDy=0;" parent="1" source="39vFo_wKYirMrCAvpEiV-17" target="39vFo_wKYirMrCAvpEiV-1" edge="1">
          <mxGeometry width="100" height="100" relative="1" as="geometry">
            <mxPoint x="650" y="430" as="sourcePoint" />
            <mxPoint x="750" y="330" as="targetPoint" />
          </mxGeometry>
        </mxCell>
        <mxCell id="39vFo_wKYirMrCAvpEiV-24" value="" style="fontSize=12;html=1;endArrow=ERmandOne;rounded=0;exitX=0.5;exitY=0;exitDx=0;exitDy=0;entryX=0.5;entryY=1;entryDx=0;entryDy=0;" parent="1" source="39vFo_wKYirMrCAvpEiV-21" target="39vFo_wKYirMrCAvpEiV-4" edge="1">
          <mxGeometry width="100" height="100" relative="1" as="geometry">
            <mxPoint x="940" y="425" as="sourcePoint" />
            <mxPoint x="1040" y="325" as="targetPoint" />
          </mxGeometry>
        </mxCell>
        <mxCell id="39vFo_wKYirMrCAvpEiV-25" value="" style="edgeStyle=orthogonalEdgeStyle;fontSize=12;html=1;endArrow=ERzeroToMany;endFill=1;rounded=0;entryX=0.5;entryY=0;entryDx=0;entryDy=0;exitX=0.5;exitY=1;exitDx=0;exitDy=0;" parent="1" source="39vFo_wKYirMrCAvpEiV-21" target="39vFo_wKYirMrCAvpEiV-20" edge="1">
          <mxGeometry width="100" height="100" relative="1" as="geometry">
            <mxPoint x="590" y="544" as="sourcePoint" />
            <mxPoint x="769" y="540" as="targetPoint" />
          </mxGeometry>
        </mxCell>
        <mxCell id="39vFo_wKYirMrCAvpEiV-26" value="" style="edgeStyle=entityRelationEdgeStyle;fontSize=12;html=1;endArrow=ERmandOne;rounded=0;entryX=1;entryY=1;entryDx=0;entryDy=0;exitX=0;exitY=0.5;exitDx=0;exitDy=0;" parent="1" source="39vFo_wKYirMrCAvpEiV-21" target="39vFo_wKYirMrCAvpEiV-1" edge="1">
          <mxGeometry width="100" height="100" relative="1" as="geometry">
            <mxPoint x="780" y="395" as="sourcePoint" />
            <mxPoint x="640" y="420" as="targetPoint" />
          </mxGeometry>
        </mxCell>
        <mxCell id="39vFo_wKYirMrCAvpEiV-27" value="" style="fontSize=12;html=1;endArrow=ERmandOne;rounded=0;entryX=0.5;entryY=1;entryDx=0;entryDy=0;exitX=0.5;exitY=0;exitDx=0;exitDy=0;" parent="1" source="39vFo_wKYirMrCAvpEiV-16" target="39vFo_wKYirMrCAvpEiV-1" edge="1">
          <mxGeometry width="100" height="100" relative="1" as="geometry">
            <mxPoint x="1020" y="535" as="sourcePoint" />
            <mxPoint x="640" y="390" as="targetPoint" />
          </mxGeometry>
        </mxCell>
        <mxCell id="39vFo_wKYirMrCAvpEiV-28" value="" style="fontSize=12;html=1;endArrow=ERmandOne;rounded=0;entryX=0.5;entryY=0;entryDx=0;entryDy=0;exitX=0.5;exitY=1;exitDx=0;exitDy=0;" parent="1" source="39vFo_wKYirMrCAvpEiV-16" target="39vFo_wKYirMrCAvpEiV-5" edge="1">
          <mxGeometry width="100" height="100" relative="1" as="geometry">
            <mxPoint x="779" y="580" as="sourcePoint" />
            <mxPoint x="779" y="465" as="targetPoint" />
          </mxGeometry>
        </mxCell>
        <mxCell id="39vFo_wKYirMrCAvpEiV-29" value="" style="edgeStyle=entityRelationEdgeStyle;fontSize=12;html=1;endArrow=ERmandOne;rounded=0;entryX=0;entryY=0.75;entryDx=0;entryDy=0;exitX=1;exitY=0.5;exitDx=0;exitDy=0;" parent="1" source="39vFo_wKYirMrCAvpEiV-16" target="39vFo_wKYirMrCAvpEiV-4" edge="1">
          <mxGeometry width="100" height="100" relative="1" as="geometry">
            <mxPoint x="700" y="430" as="sourcePoint" />
            <mxPoint x="800" y="330" as="targetPoint" />
          </mxGeometry>
        </mxCell>
        <mxCell id="39vFo_wKYirMrCAvpEiV-30" value="" style="endArrow=none;html=1;rounded=0;exitX=0.5;exitY=1;exitDx=0;exitDy=0;entryX=0;entryY=0;entryDx=0;entryDy=0;" parent="1" source="39vFo_wKYirMrCAvpEiV-3" target="39vFo_wKYirMrCAvpEiV-1" edge="1">
          <mxGeometry width="50" height="50" relative="1" as="geometry">
            <mxPoint x="500" y="330" as="sourcePoint" />
            <mxPoint x="540" y="240" as="targetPoint" />
          </mxGeometry>
        </mxCell>
        <mxCell id="39vFo_wKYirMrCAvpEiV-31" value="" style="endArrow=none;html=1;rounded=0;entryX=0.5;entryY=1;entryDx=0;entryDy=0;exitX=0.5;exitY=0;exitDx=0;exitDy=0;" parent="1" source="39vFo_wKYirMrCAvpEiV-1" target="39vFo_wKYirMrCAvpEiV-2" edge="1">
          <mxGeometry width="50" height="50" relative="1" as="geometry">
            <mxPoint x="730" y="410" as="sourcePoint" />
            <mxPoint x="780" y="360" as="targetPoint" />
          </mxGeometry>
        </mxCell>
        <mxCell id="39vFo_wKYirMrCAvpEiV-32" value="" style="endArrow=none;html=1;rounded=0;entryX=0.5;entryY=1;entryDx=0;entryDy=0;exitX=0.75;exitY=0;exitDx=0;exitDy=0;" parent="1" source="39vFo_wKYirMrCAvpEiV-1" target="39vFo_wKYirMrCAvpEiV-13" edge="1">
          <mxGeometry width="50" height="50" relative="1" as="geometry">
            <mxPoint x="730" y="410" as="sourcePoint" />
            <mxPoint x="780" y="360" as="targetPoint" />
          </mxGeometry>
        </mxCell>
        <mxCell id="39vFo_wKYirMrCAvpEiV-33" value="" style="endArrow=none;html=1;rounded=0;entryX=0;entryY=0.5;entryDx=0;entryDy=0;exitX=1;exitY=0.5;exitDx=0;exitDy=0;" parent="1" source="39vFo_wKYirMrCAvpEiV-4" target="39vFo_wKYirMrCAvpEiV-14" edge="1">
          <mxGeometry width="50" height="50" relative="1" as="geometry">
            <mxPoint x="730" y="410" as="sourcePoint" />
            <mxPoint x="780" y="360" as="targetPoint" />
          </mxGeometry>
        </mxCell>
        <mxCell id="39vFo_wKYirMrCAvpEiV-34" value="" style="endArrow=none;html=1;rounded=0;entryX=0;entryY=0.5;entryDx=0;entryDy=0;exitX=0.75;exitY=0;exitDx=0;exitDy=0;" parent="1" source="39vFo_wKYirMrCAvpEiV-4" target="39vFo_wKYirMrCAvpEiV-8" edge="1">
          <mxGeometry width="50" height="50" relative="1" as="geometry">
            <mxPoint x="730" y="410" as="sourcePoint" />
            <mxPoint x="780" y="360" as="targetPoint" />
          </mxGeometry>
        </mxCell>
        <mxCell id="39vFo_wKYirMrCAvpEiV-35" value="like_count" style="ellipse;whiteSpace=wrap;html=1;align=center;" parent="1" vertex="1">
          <mxGeometry x="1000" y="160" width="100" height="40" as="geometry" />
        </mxCell>
        <mxCell id="39vFo_wKYirMrCAvpEiV-36" value="comment_count" style="ellipse;whiteSpace=wrap;html=1;align=center;" parent="1" vertex="1">
          <mxGeometry x="900" y="180" width="100" height="40" as="geometry" />
        </mxCell>
        <mxCell id="39vFo_wKYirMrCAvpEiV-37" value="" style="endArrow=none;html=1;rounded=0;entryX=0.5;entryY=1;entryDx=0;entryDy=0;exitX=0.25;exitY=0;exitDx=0;exitDy=0;" parent="1" source="39vFo_wKYirMrCAvpEiV-4" target="39vFo_wKYirMrCAvpEiV-36" edge="1">
          <mxGeometry width="50" height="50" relative="1" as="geometry">
            <mxPoint x="730" y="410" as="sourcePoint" />
            <mxPoint x="780" y="360" as="targetPoint" />
          </mxGeometry>
        </mxCell>
        <mxCell id="39vFo_wKYirMrCAvpEiV-38" value="" style="endArrow=none;html=1;rounded=0;entryX=0.5;entryY=1;entryDx=0;entryDy=0;exitX=0.5;exitY=0;exitDx=0;exitDy=0;" parent="1" source="39vFo_wKYirMrCAvpEiV-4" target="39vFo_wKYirMrCAvpEiV-35" edge="1">
          <mxGeometry width="50" height="50" relative="1" as="geometry">
            <mxPoint x="730" y="410" as="sourcePoint" />
            <mxPoint x="780" y="360" as="targetPoint" />
          </mxGeometry>
        </mxCell>
        <mxCell id="39vFo_wKYirMrCAvpEiV-39" value="latitude" style="ellipse;whiteSpace=wrap;html=1;align=center;" parent="1" vertex="1">
          <mxGeometry x="1200" y="305" width="100" height="40" as="geometry" />
        </mxCell>
        <mxCell id="39vFo_wKYirMrCAvpEiV-40" value="longitude" style="ellipse;whiteSpace=wrap;html=1;align=center;" parent="1" vertex="1">
          <mxGeometry x="1200" y="370" width="100" height="40" as="geometry" />
        </mxCell>
        <mxCell id="39vFo_wKYirMrCAvpEiV-41" value="" style="endArrow=none;html=1;rounded=0;entryX=0;entryY=0.5;entryDx=0;entryDy=0;exitX=1;exitY=0.75;exitDx=0;exitDy=0;" parent="1" source="39vFo_wKYirMrCAvpEiV-4" target="39vFo_wKYirMrCAvpEiV-39" edge="1">
          <mxGeometry width="50" height="50" relative="1" as="geometry">
            <mxPoint x="730" y="410" as="sourcePoint" />
            <mxPoint x="780" y="360" as="targetPoint" />
          </mxGeometry>
        </mxCell>
        <mxCell id="39vFo_wKYirMrCAvpEiV-42" value="" style="endArrow=none;html=1;rounded=0;entryX=0;entryY=0.5;entryDx=0;entryDy=0;exitX=1;exitY=1;exitDx=0;exitDy=0;" parent="1" source="39vFo_wKYirMrCAvpEiV-4" target="39vFo_wKYirMrCAvpEiV-40" edge="1">
          <mxGeometry width="50" height="50" relative="1" as="geometry">
            <mxPoint x="730" y="410" as="sourcePoint" />
            <mxPoint x="780" y="360" as="targetPoint" />
          </mxGeometry>
        </mxCell>
        <mxCell id="39vFo_wKYirMrCAvpEiV-43" value="category" style="ellipse;whiteSpace=wrap;html=1;align=center;" parent="1" vertex="1">
          <mxGeometry x="1200" y="190" width="100" height="40" as="geometry" />
        </mxCell>
        <mxCell id="39vFo_wKYirMrCAvpEiV-44" value="" style="endArrow=none;html=1;rounded=0;entryX=0;entryY=0.5;entryDx=0;entryDy=0;exitX=1;exitY=0;exitDx=0;exitDy=0;" parent="1" source="39vFo_wKYirMrCAvpEiV-4" target="39vFo_wKYirMrCAvpEiV-43" edge="1">
          <mxGeometry width="50" height="50" relative="1" as="geometry">
            <mxPoint x="730" y="410" as="sourcePoint" />
            <mxPoint x="780" y="360" as="targetPoint" />
          </mxGeometry>
        </mxCell>
        <mxCell id="39vFo_wKYirMrCAvpEiV-45" value="text" style="ellipse;whiteSpace=wrap;html=1;align=center;" parent="1" vertex="1">
          <mxGeometry x="1190" y="680" width="100" height="40" as="geometry" />
        </mxCell>
        <mxCell id="39vFo_wKYirMrCAvpEiV-46" value="" style="endArrow=none;html=1;rounded=0;entryX=0.5;entryY=0;entryDx=0;entryDy=0;exitX=1;exitY=1;exitDx=0;exitDy=0;" parent="1" source="39vFo_wKYirMrCAvpEiV-20" target="39vFo_wKYirMrCAvpEiV-45" edge="1">
          <mxGeometry width="50" height="50" relative="1" as="geometry">
            <mxPoint x="730" y="410" as="sourcePoint" />
            <mxPoint x="780" y="360" as="targetPoint" />
          </mxGeometry>
        </mxCell>
        <mxCell id="39vFo_wKYirMrCAvpEiV-47" value="longitude" style="ellipse;whiteSpace=wrap;html=1;align=center;" parent="1" vertex="1">
          <mxGeometry x="690" y="140" width="100" height="40" as="geometry" />
        </mxCell>
        <mxCell id="39vFo_wKYirMrCAvpEiV-48" value="latitude" style="ellipse;whiteSpace=wrap;html=1;align=center;" parent="1" vertex="1">
          <mxGeometry x="580" y="140" width="100" height="40" as="geometry" />
        </mxCell>
        <mxCell id="39vFo_wKYirMrCAvpEiV-49" value="" style="endArrow=none;html=1;rounded=0;entryX=0.5;entryY=1;entryDx=0;entryDy=0;exitX=0.75;exitY=0;exitDx=0;exitDy=0;" parent="1" source="39vFo_wKYirMrCAvpEiV-1" target="39vFo_wKYirMrCAvpEiV-48" edge="1">
          <mxGeometry width="50" height="50" relative="1" as="geometry">
            <mxPoint x="780" y="380" as="sourcePoint" />
            <mxPoint x="830" y="330" as="targetPoint" />
          </mxGeometry>
        </mxCell>
        <mxCell id="39vFo_wKYirMrCAvpEiV-50" value="" style="endArrow=none;html=1;rounded=0;entryX=0.5;entryY=1;entryDx=0;entryDy=0;exitX=0.75;exitY=0;exitDx=0;exitDy=0;" parent="1" source="39vFo_wKYirMrCAvpEiV-1" target="39vFo_wKYirMrCAvpEiV-47" edge="1">
          <mxGeometry width="50" height="50" relative="1" as="geometry">
            <mxPoint x="780" y="380" as="sourcePoint" />
            <mxPoint x="830" y="330" as="targetPoint" />
          </mxGeometry>
        </mxCell>
        <mxCell id="AwIWD3Wa8bs917wlVkgr-1" value="id" style="ellipse;whiteSpace=wrap;html=1;align=center;fontStyle=4;" parent="1" vertex="1">
          <mxGeometry x="1260" y="620" width="100" height="40" as="geometry" />
        </mxCell>
        <mxCell id="AwIWD3Wa8bs917wlVkgr-3" value="" style="endArrow=none;html=1;rounded=0;entryX=0;entryY=0.5;entryDx=0;entryDy=0;exitX=1;exitY=0.5;exitDx=0;exitDy=0;" parent="1" source="39vFo_wKYirMrCAvpEiV-20" target="AwIWD3Wa8bs917wlVkgr-1" edge="1">
          <mxGeometry width="50" height="50" relative="1" as="geometry">
            <mxPoint x="1190" y="590" as="sourcePoint" />
            <mxPoint x="810" y="370" as="targetPoint" />
          </mxGeometry>
        </mxCell>
        <mxCell id="AwIWD3Wa8bs917wlVkgr-4" value="s3_key" style="ellipse;whiteSpace=wrap;html=1;align=center;" parent="1" vertex="1">
          <mxGeometry x="1090" y="110" width="100" height="40" as="geometry" />
        </mxCell>
        <mxCell id="AwIWD3Wa8bs917wlVkgr-5" value="" style="endArrow=none;html=1;rounded=0;entryX=0.5;entryY=1;entryDx=0;entryDy=0;exitX=0.5;exitY=0;exitDx=0;exitDy=0;" parent="1" source="39vFo_wKYirMrCAvpEiV-4" target="AwIWD3Wa8bs917wlVkgr-4" edge="1">
          <mxGeometry width="50" height="50" relative="1" as="geometry">
            <mxPoint x="760" y="420" as="sourcePoint" />
            <mxPoint x="810" y="370" as="targetPoint" />
          </mxGeometry>
        </mxCell>
      </root>
    </mxGraphModel>
  </diagram>
  <diagram id="5oNSqJmZnAOkf-G5xiMG" name="Sequence-Create-Post">
    <mxGraphModel dx="2069" dy="771" grid="1" gridSize="10" guides="1" tooltips="1" connect="1" arrows="1" fold="1" page="1" pageScale="1" pageWidth="827" pageHeight="1169" math="0" shadow="0">
      <root>
        <mxCell id="0" />
        <mxCell id="1" parent="0" />
        <mxCell id="89gAEaw_zTeTQOfKWYdU-1" value="" style="shape=umlLifeline;perimeter=lifelinePerimeter;whiteSpace=wrap;html=1;container=1;dropTarget=0;collapsible=0;recursiveResize=0;outlineConnect=0;portConstraint=eastwest;newEdgeStyle={&quot;curved&quot;:0,&quot;rounded&quot;:0};participant=umlActor;" parent="1" vertex="1">
          <mxGeometry x="-50" y="40" width="20" height="440" as="geometry" />
        </mxCell>
        <mxCell id="89gAEaw_zTeTQOfKWYdU-2" value="PostController" style="shape=umlLifeline;perimeter=lifelinePerimeter;whiteSpace=wrap;html=1;container=1;dropTarget=0;collapsible=0;recursiveResize=0;outlineConnect=0;portConstraint=eastwest;newEdgeStyle={&quot;curved&quot;:0,&quot;rounded&quot;:0};" parent="1" vertex="1">
          <mxGeometry x="190" y="40" width="100" height="440" as="geometry" />
        </mxCell>
        <mxCell id="89gAEaw_zTeTQOfKWYdU-22" value="" style="html=1;points=[[0,0,0,0,5],[0,1,0,0,-5],[1,0,0,0,5],[1,1,0,0,-5]];perimeter=orthogonalPerimeter;outlineConnect=0;targetShapes=umlLifeline;portConstraint=eastwest;newEdgeStyle={&quot;curved&quot;:0,&quot;rounded&quot;:0};" parent="89gAEaw_zTeTQOfKWYdU-2" vertex="1">
          <mxGeometry x="45" y="80" width="10" height="240" as="geometry" />
        </mxCell>
        <mxCell id="89gAEaw_zTeTQOfKWYdU-3" value="LocationUtils" style="shape=umlLifeline;perimeter=lifelinePerimeter;whiteSpace=wrap;html=1;container=1;dropTarget=0;collapsible=0;recursiveResize=0;outlineConnect=0;portConstraint=eastwest;newEdgeStyle={&quot;curved&quot;:0,&quot;rounded&quot;:0};" parent="1" vertex="1">
          <mxGeometry x="510" y="40" width="100" height="440" as="geometry" />
        </mxCell>
        <mxCell id="89gAEaw_zTeTQOfKWYdU-24" value="" style="html=1;points=[[0,0,0,0,5],[0,1,0,0,-5],[1,0,0,0,5],[1,1,0,0,-5]];perimeter=orthogonalPerimeter;outlineConnect=0;targetShapes=umlLifeline;portConstraint=eastwest;newEdgeStyle={&quot;curved&quot;:0,&quot;rounded&quot;:0};" parent="89gAEaw_zTeTQOfKWYdU-3" vertex="1">
          <mxGeometry x="45" y="130" width="10" height="20" as="geometry" />
        </mxCell>
        <mxCell id="89gAEaw_zTeTQOfKWYdU-5" value="PostRepository" style="shape=umlLifeline;perimeter=lifelinePerimeter;whiteSpace=wrap;html=1;container=1;dropTarget=0;collapsible=0;recursiveResize=0;outlineConnect=0;portConstraint=eastwest;newEdgeStyle={&quot;curved&quot;:0,&quot;rounded&quot;:0};" parent="1" vertex="1">
          <mxGeometry x="830.5" y="40" width="100" height="440" as="geometry" />
        </mxCell>
        <mxCell id="89gAEaw_zTeTQOfKWYdU-6" value="Create Post" style="html=1;verticalAlign=bottom;endArrow=block;curved=0;rounded=0;" parent="1" source="89gAEaw_zTeTQOfKWYdU-1" edge="1">
          <mxGeometry width="80" relative="1" as="geometry">
            <mxPoint x="-30" y="120" as="sourcePoint" />
            <mxPoint x="239.5" y="120" as="targetPoint" />
          </mxGeometry>
        </mxCell>
        <mxCell id="89gAEaw_zTeTQOfKWYdU-7" value="getLocation" style="html=1;verticalAlign=bottom;endArrow=block;curved=0;rounded=0;" parent="1" edge="1">
          <mxGeometry width="80" relative="1" as="geometry">
            <mxPoint x="399.5" y="170" as="sourcePoint" />
            <mxPoint x="559.63" y="170" as="targetPoint" />
          </mxGeometry>
        </mxCell>
        <mxCell id="89gAEaw_zTeTQOfKWYdU-8" value="GeoIP" style="html=1;verticalAlign=bottom;endArrow=open;dashed=1;endSize=8;curved=0;rounded=0;" parent="1" edge="1">
          <mxGeometry relative="1" as="geometry">
            <mxPoint x="559.63" y="190" as="sourcePoint" />
            <mxPoint x="399.5" y="190" as="targetPoint" />
          </mxGeometry>
        </mxCell>
        <mxCell id="89gAEaw_zTeTQOfKWYdU-9" value="save" style="html=1;verticalAlign=bottom;endArrow=block;curved=0;rounded=0;" parent="1" edge="1">
          <mxGeometry x="0.001" width="80" relative="1" as="geometry">
            <mxPoint x="399.5" y="260" as="sourcePoint" />
            <mxPoint x="881" y="260" as="targetPoint" />
            <mxPoint as="offset" />
          </mxGeometry>
        </mxCell>
        <mxCell id="89gAEaw_zTeTQOfKWYdU-10" value="UserNodeRepository" style="shape=umlLifeline;perimeter=lifelinePerimeter;whiteSpace=wrap;html=1;container=1;dropTarget=0;collapsible=0;recursiveResize=0;outlineConnect=0;portConstraint=eastwest;newEdgeStyle={&quot;curved&quot;:0,&quot;rounded&quot;:0};" parent="1" vertex="1">
          <mxGeometry x="990.5" y="40" width="100" height="440" as="geometry" />
        </mxCell>
        <mxCell id="iiEie040srKw8vtTplUx-8" value="" style="html=1;points=[[0,0,0,0,5],[0,1,0,0,-5],[1,0,0,0,5],[1,1,0,0,-5]];perimeter=orthogonalPerimeter;outlineConnect=0;targetShapes=umlLifeline;portConstraint=eastwest;newEdgeStyle={&quot;curved&quot;:0,&quot;rounded&quot;:0};" parent="89gAEaw_zTeTQOfKWYdU-10" vertex="1">
          <mxGeometry x="45" y="250" width="10" height="20" as="geometry" />
        </mxCell>
        <mxCell id="89gAEaw_zTeTQOfKWYdU-11" value="getFollowers" style="html=1;verticalAlign=bottom;endArrow=block;curved=0;rounded=0;" parent="1" edge="1">
          <mxGeometry width="80" relative="1" as="geometry">
            <mxPoint x="399.5" y="290" as="sourcePoint" />
            <mxPoint x="1040.5" y="290" as="targetPoint" />
            <Array as="points">
              <mxPoint x="971" y="290" />
            </Array>
          </mxGeometry>
        </mxCell>
        <mxCell id="89gAEaw_zTeTQOfKWYdU-12" value="PostService" style="shape=umlLifeline;perimeter=lifelinePerimeter;whiteSpace=wrap;html=1;container=1;dropTarget=0;collapsible=0;recursiveResize=0;outlineConnect=0;portConstraint=eastwest;newEdgeStyle={&quot;curved&quot;:0,&quot;rounded&quot;:0};" parent="1" vertex="1">
          <mxGeometry x="350" y="40" width="100" height="440" as="geometry" />
        </mxCell>
        <mxCell id="iiEie040srKw8vtTplUx-3" value="" style="html=1;points=[[0,0,0,0,5],[0,1,0,0,-5],[1,0,0,0,5],[1,1,0,0,-5]];perimeter=orthogonalPerimeter;outlineConnect=0;targetShapes=umlLifeline;portConstraint=eastwest;newEdgeStyle={&quot;curved&quot;:0,&quot;rounded&quot;:0};" parent="89gAEaw_zTeTQOfKWYdU-12" vertex="1">
          <mxGeometry x="45" y="100" width="10" height="200" as="geometry" />
        </mxCell>
        <mxCell id="89gAEaw_zTeTQOfKWYdU-13" value="save" style="html=1;verticalAlign=bottom;endArrow=block;curved=0;rounded=0;" parent="1" edge="1">
          <mxGeometry width="80" relative="1" as="geometry">
            <mxPoint x="240" y="140" as="sourcePoint" />
            <mxPoint x="399.5" y="140" as="targetPoint" />
          </mxGeometry>
        </mxCell>
        <mxCell id="89gAEaw_zTeTQOfKWYdU-14" value="NewsFeedService" style="shape=umlLifeline;perimeter=lifelinePerimeter;whiteSpace=wrap;html=1;container=1;dropTarget=0;collapsible=0;recursiveResize=0;outlineConnect=0;portConstraint=eastwest;newEdgeStyle={&quot;curved&quot;:0,&quot;rounded&quot;:0};" parent="1" vertex="1">
          <mxGeometry x="1150.5" y="60" width="100" height="320" as="geometry" />
        </mxCell>
        <mxCell id="89gAEaw_zTeTQOfKWYdU-18" value="" style="html=1;points=[[0,0,0,0,5],[0,1,0,0,-5],[1,0,0,0,5],[1,1,0,0,-5]];perimeter=orthogonalPerimeter;outlineConnect=0;targetShapes=umlLifeline;portConstraint=eastwest;newEdgeStyle={&quot;curved&quot;:0,&quot;rounded&quot;:0};" parent="89gAEaw_zTeTQOfKWYdU-14" vertex="1">
          <mxGeometry x="45" y="270" width="10" height="60" as="geometry" />
        </mxCell>
        <mxCell id="89gAEaw_zTeTQOfKWYdU-19" value="addToFollowerFeed" style="html=1;verticalAlign=bottom;startArrow=oval;endArrow=block;startSize=8;curved=0;rounded=0;" parent="1" target="89gAEaw_zTeTQOfKWYdU-14" edge="1">
          <mxGeometry relative="1" as="geometry">
            <mxPoint x="400.25" y="330" as="sourcePoint" />
            <mxPoint x="1039.75" y="330" as="targetPoint" />
          </mxGeometry>
        </mxCell>
        <mxCell id="89gAEaw_zTeTQOfKWYdU-20" value="PostResponseDto" style="html=1;verticalAlign=bottom;endArrow=open;dashed=1;endSize=8;curved=0;rounded=0;" parent="1" edge="1">
          <mxGeometry relative="1" as="geometry">
            <mxPoint x="400" y="340" as="sourcePoint" />
            <mxPoint x="239.5" y="340" as="targetPoint" />
          </mxGeometry>
        </mxCell>
        <mxCell id="89gAEaw_zTeTQOfKWYdU-21" value="201" style="html=1;verticalAlign=bottom;endArrow=open;dashed=1;endSize=8;curved=0;rounded=0;" parent="1" target="89gAEaw_zTeTQOfKWYdU-1" edge="1">
          <mxGeometry relative="1" as="geometry">
            <mxPoint x="239.5" y="359" as="sourcePoint" />
            <mxPoint x="-30" y="359" as="targetPoint" />
          </mxGeometry>
        </mxCell>
        <mxCell id="aw2DFuuc_dAer19MpOk7-1" value="AwsS3Service" style="shape=umlLifeline;perimeter=lifelinePerimeter;whiteSpace=wrap;html=1;container=1;dropTarget=0;collapsible=0;recursiveResize=0;outlineConnect=0;portConstraint=eastwest;newEdgeStyle={&quot;curved&quot;:0,&quot;rounded&quot;:0};" parent="1" vertex="1">
          <mxGeometry x="670" y="40" width="100" height="440" as="geometry" />
        </mxCell>
        <mxCell id="iiEie040srKw8vtTplUx-4" value="" style="html=1;points=[[0,0,0,0,5],[0,1,0,0,-5],[1,0,0,0,5],[1,1,0,0,-5]];perimeter=orthogonalPerimeter;outlineConnect=0;targetShapes=umlLifeline;portConstraint=eastwest;newEdgeStyle={&quot;curved&quot;:0,&quot;rounded&quot;:0};" parent="aw2DFuuc_dAer19MpOk7-1" vertex="1">
          <mxGeometry x="45" y="180" width="10" height="20" as="geometry" />
        </mxCell>
        <mxCell id="aw2DFuuc_dAer19MpOk7-2" value="createPresignedUrl" style="html=1;verticalAlign=bottom;endArrow=block;curved=0;rounded=0;" parent="1" edge="1">
          <mxGeometry x="0.0016" width="80" relative="1" as="geometry">
            <mxPoint x="400" y="219.5" as="sourcePoint" />
            <mxPoint x="719.5" y="219.5" as="targetPoint" />
            <mxPoint as="offset" />
          </mxGeometry>
        </mxCell>
        <mxCell id="aw2DFuuc_dAer19MpOk7-3" value="uploadPresignedUrl" style="html=1;verticalAlign=bottom;endArrow=open;dashed=1;endSize=8;curved=0;rounded=0;" parent="1" edge="1">
          <mxGeometry relative="1" as="geometry">
            <mxPoint x="720" y="240" as="sourcePoint" />
            <mxPoint x="399.5" y="240" as="targetPoint" />
          </mxGeometry>
        </mxCell>
        <mxCell id="-hpgG42ngGIwn3rqzPAt-1" value="followers" style="html=1;verticalAlign=bottom;endArrow=open;dashed=1;endSize=8;curved=0;rounded=0;" parent="1" edge="1">
          <mxGeometry relative="1" as="geometry">
            <mxPoint x="1040" y="310" as="sourcePoint" />
            <mxPoint x="399.5" y="310" as="targetPoint" />
          </mxGeometry>
        </mxCell>
        <mxCell id="HOBYXlPmQ0lbMxBBnOnJ-1" value="AWS S3" style="shape=umlLifeline;perimeter=lifelinePerimeter;whiteSpace=wrap;html=1;container=1;dropTarget=0;collapsible=0;recursiveResize=0;outlineConnect=0;portConstraint=eastwest;newEdgeStyle={&quot;curved&quot;:0,&quot;rounded&quot;:0};" parent="1" vertex="1">
          <mxGeometry x="40" y="40" width="100" height="440" as="geometry" />
        </mxCell>
        <mxCell id="HOBYXlPmQ0lbMxBBnOnJ-2" value="Upload Media" style="html=1;verticalAlign=bottom;endArrow=block;curved=0;rounded=0;" parent="1" target="HOBYXlPmQ0lbMxBBnOnJ-1" edge="1">
          <mxGeometry width="80" relative="1" as="geometry">
            <mxPoint x="-40" y="400" as="sourcePoint" />
            <mxPoint x="40" y="400" as="targetPoint" />
          </mxGeometry>
        </mxCell>
        <mxCell id="HOBYXlPmQ0lbMxBBnOnJ-3" value="200" style="html=1;verticalAlign=bottom;endArrow=open;dashed=1;endSize=8;curved=0;rounded=0;" parent="1" target="89gAEaw_zTeTQOfKWYdU-1" edge="1">
          <mxGeometry relative="1" as="geometry">
            <mxPoint x="90" y="430" as="sourcePoint" />
            <mxPoint x="10" y="430" as="targetPoint" />
          </mxGeometry>
        </mxCell>
      </root>
    </mxGraphModel>
  </diagram>
  <diagram id="zwU4FvW4YvJa7JJHBkWE" name="Sequence-Like/Comment">
    <mxGraphModel dx="1242" dy="771" grid="1" gridSize="10" guides="1" tooltips="1" connect="1" arrows="1" fold="1" page="1" pageScale="1" pageWidth="827" pageHeight="1169" math="0" shadow="0">
      <root>
        <mxCell id="0" />
        <mxCell id="1" parent="0" />
        <mxCell id="yYZ3Tu8Dgq81y0pb1kIt-1" value="" style="shape=umlLifeline;perimeter=lifelinePerimeter;whiteSpace=wrap;html=1;container=1;dropTarget=0;collapsible=0;recursiveResize=0;outlineConnect=0;portConstraint=eastwest;newEdgeStyle={&quot;curved&quot;:0,&quot;rounded&quot;:0};participant=umlActor;" parent="1" vertex="1">
          <mxGeometry x="70" y="40" width="20" height="640" as="geometry" />
        </mxCell>
        <mxCell id="yYZ3Tu8Dgq81y0pb1kIt-2" value="LikeController" style="shape=umlLifeline;perimeter=lifelinePerimeter;whiteSpace=wrap;html=1;container=1;dropTarget=0;collapsible=0;recursiveResize=0;outlineConnect=0;portConstraint=eastwest;newEdgeStyle={&quot;curved&quot;:0,&quot;rounded&quot;:0};" parent="1" vertex="1">
          <mxGeometry x="150" y="40" width="100" height="640" as="geometry" />
        </mxCell>
        <mxCell id="yYZ3Tu8Dgq81y0pb1kIt-54" value="" style="html=1;points=[[0,0,0,0,5],[0,1,0,0,-5],[1,0,0,0,5],[1,1,0,0,-5]];perimeter=orthogonalPerimeter;outlineConnect=0;targetShapes=umlLifeline;portConstraint=eastwest;newEdgeStyle={&quot;curved&quot;:0,&quot;rounded&quot;:0};" parent="yYZ3Tu8Dgq81y0pb1kIt-2" vertex="1">
          <mxGeometry x="45" y="60" width="10" height="560" as="geometry" />
        </mxCell>
        <mxCell id="yYZ3Tu8Dgq81y0pb1kIt-3" value="LikeService" style="shape=umlLifeline;perimeter=lifelinePerimeter;whiteSpace=wrap;html=1;container=1;dropTarget=0;collapsible=0;recursiveResize=0;outlineConnect=0;portConstraint=eastwest;newEdgeStyle={&quot;curved&quot;:0,&quot;rounded&quot;:0};" parent="1" vertex="1">
          <mxGeometry x="310" y="40" width="100" height="640" as="geometry" />
        </mxCell>
        <mxCell id="yYZ3Tu8Dgq81y0pb1kIt-56" value="" style="html=1;points=[[0,0,0,0,5],[0,1,0,0,-5],[1,0,0,0,5],[1,1,0,0,-5]];perimeter=orthogonalPerimeter;outlineConnect=0;targetShapes=umlLifeline;portConstraint=eastwest;newEdgeStyle={&quot;curved&quot;:0,&quot;rounded&quot;:0};" parent="yYZ3Tu8Dgq81y0pb1kIt-3" vertex="1">
          <mxGeometry x="45" y="80" width="10" height="500" as="geometry" />
        </mxCell>
        <mxCell id="yYZ3Tu8Dgq81y0pb1kIt-4" value="PostRepository" style="shape=umlLifeline;perimeter=lifelinePerimeter;whiteSpace=wrap;html=1;container=1;dropTarget=0;collapsible=0;recursiveResize=0;outlineConnect=0;portConstraint=eastwest;newEdgeStyle={&quot;curved&quot;:0,&quot;rounded&quot;:0};" parent="1" vertex="1">
          <mxGeometry x="470" y="40" width="100" height="640" as="geometry" />
        </mxCell>
        <mxCell id="yYZ3Tu8Dgq81y0pb1kIt-5" value="UserRepository" style="shape=umlLifeline;perimeter=lifelinePerimeter;whiteSpace=wrap;html=1;container=1;dropTarget=0;collapsible=0;recursiveResize=0;outlineConnect=0;portConstraint=eastwest;newEdgeStyle={&quot;curved&quot;:0,&quot;rounded&quot;:0};" parent="1" vertex="1">
          <mxGeometry x="630" y="40" width="100" height="640" as="geometry" />
        </mxCell>
        <mxCell id="QRy8sAa7lfpefmLnpn66-1" value="" style="html=1;points=[[0,0,0,0,5],[0,1,0,0,-5],[1,0,0,0,5],[1,1,0,0,-5]];perimeter=orthogonalPerimeter;outlineConnect=0;targetShapes=umlLifeline;portConstraint=eastwest;newEdgeStyle={&quot;curved&quot;:0,&quot;rounded&quot;:0};" parent="yYZ3Tu8Dgq81y0pb1kIt-5" vertex="1">
          <mxGeometry x="45" y="240" width="10" height="90" as="geometry" />
        </mxCell>
        <mxCell id="yYZ3Tu8Dgq81y0pb1kIt-6" value="LikeRepository" style="shape=umlLifeline;perimeter=lifelinePerimeter;whiteSpace=wrap;html=1;container=1;dropTarget=0;collapsible=0;recursiveResize=0;outlineConnect=0;portConstraint=eastwest;newEdgeStyle={&quot;curved&quot;:0,&quot;rounded&quot;:0};" parent="1" vertex="1">
          <mxGeometry x="790" y="40" width="100" height="640" as="geometry" />
        </mxCell>
        <mxCell id="QRy8sAa7lfpefmLnpn66-2" value="" style="html=1;points=[[0,0,0,0,5],[0,1,0,0,-5],[1,0,0,0,5],[1,1,0,0,-5]];perimeter=orthogonalPerimeter;outlineConnect=0;targetShapes=umlLifeline;portConstraint=eastwest;newEdgeStyle={&quot;curved&quot;:0,&quot;rounded&quot;:0};" parent="yYZ3Tu8Dgq81y0pb1kIt-6" vertex="1">
          <mxGeometry x="45" y="380" width="10" height="80" as="geometry" />
        </mxCell>
        <mxCell id="yYZ3Tu8Dgq81y0pb1kIt-7" value="Like Post" style="html=1;verticalAlign=bottom;endArrow=block;curved=0;rounded=0;" parent="1" target="yYZ3Tu8Dgq81y0pb1kIt-2" edge="1">
          <mxGeometry width="80" relative="1" as="geometry">
            <mxPoint x="80" y="100" as="sourcePoint" />
            <mxPoint x="160" y="100" as="targetPoint" />
          </mxGeometry>
        </mxCell>
        <mxCell id="yYZ3Tu8Dgq81y0pb1kIt-8" value="likePost" style="html=1;verticalAlign=bottom;endArrow=block;curved=0;rounded=0;" parent="1" target="yYZ3Tu8Dgq81y0pb1kIt-3" edge="1">
          <mxGeometry width="80" relative="1" as="geometry">
            <mxPoint x="200" y="120" as="sourcePoint" />
            <mxPoint x="280" y="120" as="targetPoint" />
          </mxGeometry>
        </mxCell>
        <mxCell id="yYZ3Tu8Dgq81y0pb1kIt-12" value="Alternative" style="shape=umlFrame;whiteSpace=wrap;html=1;pointerEvents=0;" parent="1" vertex="1">
          <mxGeometry y="150" width="550" height="100" as="geometry" />
        </mxCell>
        <mxCell id="yYZ3Tu8Dgq81y0pb1kIt-13" value="existsById" style="html=1;verticalAlign=bottom;endArrow=block;curved=0;rounded=0;" parent="1" edge="1">
          <mxGeometry width="80" relative="1" as="geometry">
            <mxPoint x="360" y="140" as="sourcePoint" />
            <mxPoint x="519.5" y="140" as="targetPoint" />
          </mxGeometry>
        </mxCell>
        <mxCell id="yYZ3Tu8Dgq81y0pb1kIt-14" value="" style="endArrow=none;dashed=1;html=1;rounded=0;exitX=0;exitY=0.35;exitDx=0;exitDy=0;exitPerimeter=0;" parent="1" edge="1">
          <mxGeometry width="50" height="50" relative="1" as="geometry">
            <mxPoint y="199.5" as="sourcePoint" />
            <mxPoint x="550" y="201" as="targetPoint" />
          </mxGeometry>
        </mxCell>
        <mxCell id="yYZ3Tu8Dgq81y0pb1kIt-15" value="If post exists" style="text;html=1;align=center;verticalAlign=middle;resizable=0;points=[];autosize=1;strokeColor=none;fillColor=none;" parent="1" vertex="1">
          <mxGeometry y="175" width="90" height="30" as="geometry" />
        </mxCell>
        <mxCell id="yYZ3Tu8Dgq81y0pb1kIt-17" value="Else" style="text;html=1;align=center;verticalAlign=middle;resizable=0;points=[];autosize=1;strokeColor=none;fillColor=none;" parent="1" vertex="1">
          <mxGeometry x="10" y="210" width="50" height="30" as="geometry" />
        </mxCell>
        <mxCell id="yYZ3Tu8Dgq81y0pb1kIt-18" value="true" style="html=1;verticalAlign=bottom;endArrow=open;dashed=1;endSize=8;curved=0;rounded=0;" parent="1" edge="1">
          <mxGeometry relative="1" as="geometry">
            <mxPoint x="519.5" y="180" as="sourcePoint" />
            <mxPoint x="360" y="180" as="targetPoint" />
          </mxGeometry>
        </mxCell>
        <mxCell id="yYZ3Tu8Dgq81y0pb1kIt-19" value="false" style="html=1;verticalAlign=bottom;endArrow=open;dashed=1;endSize=8;curved=0;rounded=0;" parent="1" source="yYZ3Tu8Dgq81y0pb1kIt-4" edge="1">
          <mxGeometry relative="1" as="geometry">
            <mxPoint x="440" y="220" as="sourcePoint" />
            <mxPoint x="360" y="220" as="targetPoint" />
          </mxGeometry>
        </mxCell>
        <mxCell id="yYZ3Tu8Dgq81y0pb1kIt-20" value="Post not found" style="html=1;verticalAlign=bottom;endArrow=open;dashed=1;endSize=8;curved=0;rounded=0;" parent="1" target="yYZ3Tu8Dgq81y0pb1kIt-2" edge="1">
          <mxGeometry relative="1" as="geometry">
            <mxPoint x="360" y="230" as="sourcePoint" />
            <mxPoint x="280" y="230" as="targetPoint" />
          </mxGeometry>
        </mxCell>
        <mxCell id="yYZ3Tu8Dgq81y0pb1kIt-21" value="404" style="html=1;verticalAlign=bottom;endArrow=open;dashed=1;endSize=8;curved=0;rounded=0;" parent="1" target="yYZ3Tu8Dgq81y0pb1kIt-1" edge="1">
          <mxGeometry relative="1" as="geometry">
            <mxPoint x="200" y="240" as="sourcePoint" />
            <mxPoint x="120" y="240" as="targetPoint" />
          </mxGeometry>
        </mxCell>
        <mxCell id="yYZ3Tu8Dgq81y0pb1kIt-23" value="existsById" style="html=1;verticalAlign=bottom;endArrow=block;curved=0;rounded=0;" parent="1" target="yYZ3Tu8Dgq81y0pb1kIt-5" edge="1">
          <mxGeometry width="80" relative="1" as="geometry">
            <mxPoint x="360" y="280" as="sourcePoint" />
            <mxPoint x="280" y="280" as="targetPoint" />
          </mxGeometry>
        </mxCell>
        <mxCell id="yYZ3Tu8Dgq81y0pb1kIt-24" value="Alternative" style="shape=umlFrame;whiteSpace=wrap;html=1;pointerEvents=0;" parent="1" vertex="1">
          <mxGeometry y="300" width="700" height="100" as="geometry" />
        </mxCell>
        <mxCell id="yYZ3Tu8Dgq81y0pb1kIt-25" value="If user exists" style="text;html=1;align=center;verticalAlign=middle;resizable=0;points=[];autosize=1;strokeColor=none;fillColor=none;" parent="1" vertex="1">
          <mxGeometry y="325" width="90" height="30" as="geometry" />
        </mxCell>
        <mxCell id="yYZ3Tu8Dgq81y0pb1kIt-26" value="Else" style="text;html=1;align=center;verticalAlign=middle;resizable=0;points=[];autosize=1;strokeColor=none;fillColor=none;" parent="1" vertex="1">
          <mxGeometry x="10" y="360" width="50" height="30" as="geometry" />
        </mxCell>
        <mxCell id="yYZ3Tu8Dgq81y0pb1kIt-27" value="true" style="html=1;verticalAlign=bottom;endArrow=open;dashed=1;endSize=8;curved=0;rounded=0;" parent="1" source="yYZ3Tu8Dgq81y0pb1kIt-5" edge="1">
          <mxGeometry relative="1" as="geometry">
            <mxPoint x="519.5" y="330" as="sourcePoint" />
            <mxPoint x="360" y="330" as="targetPoint" />
          </mxGeometry>
        </mxCell>
        <mxCell id="yYZ3Tu8Dgq81y0pb1kIt-28" value="false" style="html=1;verticalAlign=bottom;endArrow=open;dashed=1;endSize=8;curved=0;rounded=0;" parent="1" source="yYZ3Tu8Dgq81y0pb1kIt-5" edge="1">
          <mxGeometry relative="1" as="geometry">
            <mxPoint x="520" y="370" as="sourcePoint" />
            <mxPoint x="360" y="370" as="targetPoint" />
          </mxGeometry>
        </mxCell>
        <mxCell id="yYZ3Tu8Dgq81y0pb1kIt-29" value="User not found" style="html=1;verticalAlign=bottom;endArrow=open;dashed=1;endSize=8;curved=0;rounded=0;" parent="1" edge="1">
          <mxGeometry relative="1" as="geometry">
            <mxPoint x="360" y="380" as="sourcePoint" />
            <mxPoint x="200" y="380" as="targetPoint" />
          </mxGeometry>
        </mxCell>
        <mxCell id="yYZ3Tu8Dgq81y0pb1kIt-30" value="404" style="html=1;verticalAlign=bottom;endArrow=open;dashed=1;endSize=8;curved=0;rounded=0;" parent="1" edge="1">
          <mxGeometry relative="1" as="geometry">
            <mxPoint x="200" y="390" as="sourcePoint" />
            <mxPoint x="80" y="390" as="targetPoint" />
          </mxGeometry>
        </mxCell>
        <mxCell id="yYZ3Tu8Dgq81y0pb1kIt-31" value="" style="endArrow=none;dashed=1;html=1;rounded=0;entryX=1.004;entryY=0.49;entryDx=0;entryDy=0;entryPerimeter=0;exitX=0;exitY=0.35;exitDx=0;exitDy=0;exitPerimeter=0;" parent="1" target="yYZ3Tu8Dgq81y0pb1kIt-24" edge="1">
          <mxGeometry width="50" height="50" relative="1" as="geometry">
            <mxPoint x="1.8900000000000006" y="349.5" as="sourcePoint" />
            <mxPoint x="630.0000000000001" y="350.5" as="targetPoint" />
          </mxGeometry>
        </mxCell>
        <mxCell id="yYZ3Tu8Dgq81y0pb1kIt-35" value="existsByUserIdAndPostId" style="html=1;verticalAlign=bottom;endArrow=block;curved=0;rounded=0;" parent="1" target="yYZ3Tu8Dgq81y0pb1kIt-6" edge="1">
          <mxGeometry width="80" relative="1" as="geometry">
            <mxPoint x="360" y="420" as="sourcePoint" />
            <mxPoint x="280" y="420" as="targetPoint" />
          </mxGeometry>
        </mxCell>
        <mxCell id="yYZ3Tu8Dgq81y0pb1kIt-36" value="Alternative" style="shape=umlFrame;whiteSpace=wrap;html=1;pointerEvents=0;" parent="1" vertex="1">
          <mxGeometry y="430" width="860" height="100" as="geometry" />
        </mxCell>
        <mxCell id="yYZ3Tu8Dgq81y0pb1kIt-37" value="If like exists" style="text;html=1;align=center;verticalAlign=middle;resizable=0;points=[];autosize=1;strokeColor=none;fillColor=none;" parent="1" vertex="1">
          <mxGeometry y="455" width="90" height="30" as="geometry" />
        </mxCell>
        <mxCell id="yYZ3Tu8Dgq81y0pb1kIt-38" value="Else" style="text;html=1;align=center;verticalAlign=middle;resizable=0;points=[];autosize=1;strokeColor=none;fillColor=none;" parent="1" vertex="1">
          <mxGeometry x="10" y="490" width="50" height="30" as="geometry" />
        </mxCell>
        <mxCell id="yYZ3Tu8Dgq81y0pb1kIt-39" value="true" style="html=1;verticalAlign=bottom;endArrow=open;dashed=1;endSize=8;curved=0;rounded=0;" parent="1" source="yYZ3Tu8Dgq81y0pb1kIt-6" edge="1">
          <mxGeometry relative="1" as="geometry">
            <mxPoint x="680" y="460" as="sourcePoint" />
            <mxPoint x="360" y="460" as="targetPoint" />
          </mxGeometry>
        </mxCell>
        <mxCell id="yYZ3Tu8Dgq81y0pb1kIt-40" value="false" style="html=1;verticalAlign=bottom;endArrow=open;dashed=1;endSize=8;curved=0;rounded=0;" parent="1" source="yYZ3Tu8Dgq81y0pb1kIt-6" edge="1">
          <mxGeometry relative="1" as="geometry">
            <mxPoint x="680" y="500" as="sourcePoint" />
            <mxPoint x="360" y="500" as="targetPoint" />
          </mxGeometry>
        </mxCell>
        <mxCell id="yYZ3Tu8Dgq81y0pb1kIt-41" value="Like already exists" style="html=1;verticalAlign=bottom;endArrow=open;dashed=1;endSize=8;curved=0;rounded=0;" parent="1" edge="1">
          <mxGeometry relative="1" as="geometry">
            <mxPoint x="360" y="510" as="sourcePoint" />
            <mxPoint x="200" y="510" as="targetPoint" />
          </mxGeometry>
        </mxCell>
        <mxCell id="yYZ3Tu8Dgq81y0pb1kIt-42" value="422" style="html=1;verticalAlign=bottom;endArrow=open;dashed=1;endSize=8;curved=0;rounded=0;" parent="1" edge="1">
          <mxGeometry relative="1" as="geometry">
            <mxPoint x="200" y="520" as="sourcePoint" />
            <mxPoint x="80" y="520" as="targetPoint" />
          </mxGeometry>
        </mxCell>
        <mxCell id="yYZ3Tu8Dgq81y0pb1kIt-43" value="" style="endArrow=none;dashed=1;html=1;rounded=0;entryX=1.004;entryY=0.49;entryDx=0;entryDy=0;entryPerimeter=0;exitX=0;exitY=0.35;exitDx=0;exitDy=0;exitPerimeter=0;" parent="1" target="yYZ3Tu8Dgq81y0pb1kIt-36" edge="1">
          <mxGeometry width="50" height="50" relative="1" as="geometry">
            <mxPoint x="1.8900000000000006" y="479.5" as="sourcePoint" />
            <mxPoint x="630.0000000000001" y="480.5" as="targetPoint" />
          </mxGeometry>
        </mxCell>
        <mxCell id="yYZ3Tu8Dgq81y0pb1kIt-44" value="save" style="html=1;verticalAlign=bottom;endArrow=block;curved=0;rounded=0;" parent="1" target="yYZ3Tu8Dgq81y0pb1kIt-6" edge="1">
          <mxGeometry width="80" relative="1" as="geometry">
            <mxPoint x="360" y="560" as="sourcePoint" />
            <mxPoint x="440" y="560" as="targetPoint" />
          </mxGeometry>
        </mxCell>
        <mxCell id="yYZ3Tu8Dgq81y0pb1kIt-45" value="PostService" style="shape=umlLifeline;perimeter=lifelinePerimeter;whiteSpace=wrap;html=1;container=1;dropTarget=0;collapsible=0;recursiveResize=0;outlineConnect=0;portConstraint=eastwest;newEdgeStyle={&quot;curved&quot;:0,&quot;rounded&quot;:0};" parent="1" vertex="1">
          <mxGeometry x="950" y="40" width="100" height="640" as="geometry" />
        </mxCell>
        <mxCell id="yYZ3Tu8Dgq81y0pb1kIt-46" value="incrementLikeCount" style="html=1;verticalAlign=bottom;endArrow=block;curved=0;rounded=0;" parent="1" edge="1">
          <mxGeometry width="80" relative="1" as="geometry">
            <mxPoint x="360.25" y="590" as="sourcePoint" />
            <mxPoint x="999.75" y="590" as="targetPoint" />
          </mxGeometry>
        </mxCell>
        <mxCell id="yYZ3Tu8Dgq81y0pb1kIt-49" value="NewsFeedService" style="shape=umlLifeline;perimeter=lifelinePerimeter;whiteSpace=wrap;html=1;container=1;dropTarget=0;collapsible=0;recursiveResize=0;outlineConnect=0;portConstraint=eastwest;newEdgeStyle={&quot;curved&quot;:0,&quot;rounded&quot;:0};" parent="1" vertex="1">
          <mxGeometry x="1110" y="40" width="100" height="670" as="geometry" />
        </mxCell>
        <mxCell id="yYZ3Tu8Dgq81y0pb1kIt-51" value="" style="html=1;points=[[0,0,0,0,5],[0,1,0,0,-5],[1,0,0,0,5],[1,1,0,0,-5]];perimeter=orthogonalPerimeter;outlineConnect=0;targetShapes=umlLifeline;portConstraint=eastwest;newEdgeStyle={&quot;curved&quot;:0,&quot;rounded&quot;:0};" parent="yYZ3Tu8Dgq81y0pb1kIt-49" vertex="1">
          <mxGeometry x="45" y="590" width="10" height="80" as="geometry" />
        </mxCell>
        <mxCell id="yYZ3Tu8Dgq81y0pb1kIt-52" value="updateScore" style="html=1;verticalAlign=bottom;startArrow=oval;endArrow=block;startSize=8;curved=0;rounded=0;" parent="1" target="yYZ3Tu8Dgq81y0pb1kIt-49" edge="1">
          <mxGeometry relative="1" as="geometry">
            <mxPoint x="200" y="635" as="sourcePoint" />
          </mxGeometry>
        </mxCell>
        <mxCell id="yYZ3Tu8Dgq81y0pb1kIt-53" value="201" style="html=1;verticalAlign=bottom;endArrow=open;dashed=1;endSize=8;curved=0;rounded=0;" parent="1" target="yYZ3Tu8Dgq81y0pb1kIt-1" edge="1">
          <mxGeometry relative="1" as="geometry">
            <mxPoint x="200" y="660" as="sourcePoint" />
            <mxPoint x="120" y="660" as="targetPoint" />
          </mxGeometry>
        </mxCell>
        <mxCell id="yYZ3Tu8Dgq81y0pb1kIt-55" value="Like Added" style="html=1;verticalAlign=bottom;endArrow=open;dashed=1;endSize=8;curved=0;rounded=0;" parent="1" edge="1">
          <mxGeometry relative="1" as="geometry">
            <mxPoint x="360" y="620" as="sourcePoint" />
            <mxPoint x="199.5" y="620" as="targetPoint" />
          </mxGeometry>
        </mxCell>
        <mxCell id="yYZ3Tu8Dgq81y0pb1kIt-57" value="" style="html=1;points=[[0,0,0,0,5],[0,1,0,0,-5],[1,0,0,0,5],[1,1,0,0,-5]];perimeter=orthogonalPerimeter;outlineConnect=0;targetShapes=umlLifeline;portConstraint=eastwest;newEdgeStyle={&quot;curved&quot;:0,&quot;rounded&quot;:0};" parent="1" vertex="1">
          <mxGeometry x="515" y="140" width="10" height="80" as="geometry" />
        </mxCell>
      </root>
    </mxGraphModel>
  </diagram>
  <diagram id="d6OkZRcBqzH-8dlOvWcg" name="Sequence-Retrieve-Feed">
    <mxGraphModel dx="2069" dy="771" grid="1" gridSize="10" guides="1" tooltips="1" connect="1" arrows="1" fold="1" page="1" pageScale="1" pageWidth="827" pageHeight="1169" math="0" shadow="0">
      <root>
        <mxCell id="0" />
        <mxCell id="1" parent="0" />
        <mxCell id="lHCyS2TRgaWFzpB90BSP-1" value="" style="shape=umlLifeline;perimeter=lifelinePerimeter;whiteSpace=wrap;html=1;container=1;dropTarget=0;collapsible=0;recursiveResize=0;outlineConnect=0;portConstraint=eastwest;newEdgeStyle={&quot;curved&quot;:0,&quot;rounded&quot;:0};participant=umlActor;" parent="1" vertex="1">
          <mxGeometry x="-90" y="40" width="20" height="400" as="geometry" />
        </mxCell>
        <mxCell id="dQi-lj7n18KRM8rQ5fiY-1" value="NewsFeedController" style="shape=umlLifeline;perimeter=lifelinePerimeter;whiteSpace=wrap;html=1;container=1;dropTarget=0;collapsible=0;recursiveResize=0;outlineConnect=0;portConstraint=eastwest;newEdgeStyle={&quot;curved&quot;:0,&quot;rounded&quot;:0};" parent="1" vertex="1">
          <mxGeometry x="150" y="40" width="100" height="400" as="geometry" />
        </mxCell>
        <mxCell id="dQi-lj7n18KRM8rQ5fiY-15" value="" style="html=1;points=[[0,0,0,0,5],[0,1,0,0,-5],[1,0,0,0,5],[1,1,0,0,-5]];perimeter=orthogonalPerimeter;outlineConnect=0;targetShapes=umlLifeline;portConstraint=eastwest;newEdgeStyle={&quot;curved&quot;:0,&quot;rounded&quot;:0};" parent="dQi-lj7n18KRM8rQ5fiY-1" vertex="1">
          <mxGeometry x="45" y="80" width="10" height="220" as="geometry" />
        </mxCell>
        <mxCell id="dQi-lj7n18KRM8rQ5fiY-2" value="NewsFeedService" style="shape=umlLifeline;perimeter=lifelinePerimeter;whiteSpace=wrap;html=1;container=1;dropTarget=0;collapsible=0;recursiveResize=0;outlineConnect=0;portConstraint=eastwest;newEdgeStyle={&quot;curved&quot;:0,&quot;rounded&quot;:0};" parent="1" vertex="1">
          <mxGeometry x="310" y="40" width="100" height="400" as="geometry" />
        </mxCell>
        <mxCell id="dQi-lj7n18KRM8rQ5fiY-16" value="" style="html=1;points=[[0,0,0,0,5],[0,1,0,0,-5],[1,0,0,0,5],[1,1,0,0,-5]];perimeter=orthogonalPerimeter;outlineConnect=0;targetShapes=umlLifeline;portConstraint=eastwest;newEdgeStyle={&quot;curved&quot;:0,&quot;rounded&quot;:0};" parent="dQi-lj7n18KRM8rQ5fiY-2" vertex="1">
          <mxGeometry x="45" y="100" width="10" height="180" as="geometry" />
        </mxCell>
        <mxCell id="dQi-lj7n18KRM8rQ5fiY-3" value="FeedItemRepository" style="shape=umlLifeline;perimeter=lifelinePerimeter;whiteSpace=wrap;html=1;container=1;dropTarget=0;collapsible=0;recursiveResize=0;outlineConnect=0;portConstraint=eastwest;newEdgeStyle={&quot;curved&quot;:0,&quot;rounded&quot;:0};" parent="1" vertex="1">
          <mxGeometry x="470" y="40" width="100" height="400" as="geometry" />
        </mxCell>
        <mxCell id="8VKs2V6aoFL6RpVqja8n-7" value="" style="html=1;points=[[0,0,0,0,5],[0,1,0,0,-5],[1,0,0,0,5],[1,1,0,0,-5]];perimeter=orthogonalPerimeter;outlineConnect=0;targetShapes=umlLifeline;portConstraint=eastwest;newEdgeStyle={&quot;curved&quot;:0,&quot;rounded&quot;:0};" vertex="1" parent="dQi-lj7n18KRM8rQ5fiY-3">
          <mxGeometry x="45" y="120" width="10" height="20" as="geometry" />
        </mxCell>
        <mxCell id="dQi-lj7n18KRM8rQ5fiY-4" value="PostRepository" style="shape=umlLifeline;perimeter=lifelinePerimeter;whiteSpace=wrap;html=1;container=1;dropTarget=0;collapsible=0;recursiveResize=0;outlineConnect=0;portConstraint=eastwest;newEdgeStyle={&quot;curved&quot;:0,&quot;rounded&quot;:0};" parent="1" vertex="1">
          <mxGeometry x="630" y="40" width="100" height="400" as="geometry" />
        </mxCell>
        <mxCell id="8VKs2V6aoFL6RpVqja8n-8" value="" style="html=1;points=[[0,0,0,0,5],[0,1,0,0,-5],[1,0,0,0,5],[1,1,0,0,-5]];perimeter=orthogonalPerimeter;outlineConnect=0;targetShapes=umlLifeline;portConstraint=eastwest;newEdgeStyle={&quot;curved&quot;:0,&quot;rounded&quot;:0};" vertex="1" parent="dQi-lj7n18KRM8rQ5fiY-4">
          <mxGeometry x="45" y="160" width="10" height="20" as="geometry" />
        </mxCell>
        <mxCell id="dQi-lj7n18KRM8rQ5fiY-5" value="Get Feed" style="html=1;verticalAlign=bottom;endArrow=block;curved=0;rounded=0;" parent="1" target="dQi-lj7n18KRM8rQ5fiY-1" edge="1">
          <mxGeometry width="80" relative="1" as="geometry">
            <mxPoint x="-80" y="120" as="sourcePoint" />
            <mxPoint x="159.5" y="120" as="targetPoint" />
          </mxGeometry>
        </mxCell>
        <mxCell id="dQi-lj7n18KRM8rQ5fiY-6" value="getFeed" style="html=1;verticalAlign=bottom;endArrow=block;curved=0;rounded=0;" parent="1" target="dQi-lj7n18KRM8rQ5fiY-2" edge="1">
          <mxGeometry x="0.0031" width="80" relative="1" as="geometry">
            <mxPoint x="200" y="140" as="sourcePoint" />
            <mxPoint x="280" y="140" as="targetPoint" />
            <mxPoint as="offset" />
          </mxGeometry>
        </mxCell>
        <mxCell id="dQi-lj7n18KRM8rQ5fiY-7" value="findByUserId" style="html=1;verticalAlign=bottom;endArrow=block;curved=0;rounded=0;" parent="1" target="dQi-lj7n18KRM8rQ5fiY-3" edge="1">
          <mxGeometry width="80" relative="1" as="geometry">
            <mxPoint x="360" y="160" as="sourcePoint" />
            <mxPoint x="440" y="160" as="targetPoint" />
          </mxGeometry>
        </mxCell>
        <mxCell id="dQi-lj7n18KRM8rQ5fiY-10" value="UserRepository" style="shape=umlLifeline;perimeter=lifelinePerimeter;whiteSpace=wrap;html=1;container=1;dropTarget=0;collapsible=0;recursiveResize=0;outlineConnect=0;portConstraint=eastwest;newEdgeStyle={&quot;curved&quot;:0,&quot;rounded&quot;:0};" parent="1" vertex="1">
          <mxGeometry x="950.5" y="40" width="100" height="400" as="geometry" />
        </mxCell>
        <mxCell id="8VKs2V6aoFL6RpVqja8n-11" value="" style="html=1;points=[[0,0,0,0,5],[0,1,0,0,-5],[1,0,0,0,5],[1,1,0,0,-5]];perimeter=orthogonalPerimeter;outlineConnect=0;targetShapes=umlLifeline;portConstraint=eastwest;newEdgeStyle={&quot;curved&quot;:0,&quot;rounded&quot;:0};" vertex="1" parent="dQi-lj7n18KRM8rQ5fiY-10">
          <mxGeometry x="45" y="240" width="10" height="20" as="geometry" />
        </mxCell>
        <mxCell id="dQi-lj7n18KRM8rQ5fiY-11" value="findById" style="html=1;verticalAlign=bottom;endArrow=block;curved=0;rounded=0;" parent="1" edge="1">
          <mxGeometry width="80" relative="1" as="geometry">
            <mxPoint x="360.25" y="199.5" as="sourcePoint" />
            <mxPoint x="679.75" y="199.5" as="targetPoint" />
          </mxGeometry>
        </mxCell>
        <mxCell id="dQi-lj7n18KRM8rQ5fiY-12" value="findById" style="html=1;verticalAlign=bottom;endArrow=block;curved=0;rounded=0;" parent="1" edge="1" source="dQi-lj7n18KRM8rQ5fiY-2">
          <mxGeometry width="80" relative="1" as="geometry">
            <mxPoint x="400" y="280" as="sourcePoint" />
            <mxPoint x="1000" y="280" as="targetPoint" />
          </mxGeometry>
        </mxCell>
        <mxCell id="dQi-lj7n18KRM8rQ5fiY-13" value="Feed with Post and User" style="html=1;verticalAlign=bottom;endArrow=open;dashed=1;endSize=8;curved=0;rounded=0;" parent="1" edge="1">
          <mxGeometry relative="1" as="geometry">
            <mxPoint x="360" y="320" as="sourcePoint" />
            <mxPoint x="199.5" y="320" as="targetPoint" />
          </mxGeometry>
        </mxCell>
        <mxCell id="dQi-lj7n18KRM8rQ5fiY-14" value="200" style="html=1;verticalAlign=bottom;endArrow=open;dashed=1;endSize=8;curved=0;rounded=0;" parent="1" edge="1" source="dQi-lj7n18KRM8rQ5fiY-1">
          <mxGeometry relative="1" as="geometry">
            <mxPoint x="159.5" y="340" as="sourcePoint" />
            <mxPoint x="-80.5" y="340" as="targetPoint" />
          </mxGeometry>
        </mxCell>
        <mxCell id="8VKs2V6aoFL6RpVqja8n-1" value="Page&amp;lt;FeedItem&amp;gt;" style="html=1;verticalAlign=bottom;endArrow=open;dashed=1;endSize=8;curved=0;rounded=0;" edge="1" parent="1" target="dQi-lj7n18KRM8rQ5fiY-2">
          <mxGeometry relative="1" as="geometry">
            <mxPoint x="520" y="180" as="sourcePoint" />
            <mxPoint x="440" y="180" as="targetPoint" />
          </mxGeometry>
        </mxCell>
        <mxCell id="8VKs2V6aoFL6RpVqja8n-2" value="Post" style="html=1;verticalAlign=bottom;endArrow=open;dashed=1;endSize=8;curved=0;rounded=0;" edge="1" parent="1" target="dQi-lj7n18KRM8rQ5fiY-2">
          <mxGeometry relative="1" as="geometry">
            <mxPoint x="680" y="220" as="sourcePoint" />
            <mxPoint x="600" y="220" as="targetPoint" />
          </mxGeometry>
        </mxCell>
        <mxCell id="8VKs2V6aoFL6RpVqja8n-3" value="AwsS3Service" style="shape=umlLifeline;perimeter=lifelinePerimeter;whiteSpace=wrap;html=1;container=1;dropTarget=0;collapsible=0;recursiveResize=0;outlineConnect=0;portConstraint=eastwest;newEdgeStyle={&quot;curved&quot;:0,&quot;rounded&quot;:0};" vertex="1" parent="1">
          <mxGeometry x="790" y="40" width="100" height="400" as="geometry" />
        </mxCell>
        <mxCell id="8VKs2V6aoFL6RpVqja8n-12" value="" style="html=1;points=[[0,0,0,0,5],[0,1,0,0,-5],[1,0,0,0,5],[1,1,0,0,-5]];perimeter=orthogonalPerimeter;outlineConnect=0;targetShapes=umlLifeline;portConstraint=eastwest;newEdgeStyle={&quot;curved&quot;:0,&quot;rounded&quot;:0};" vertex="1" parent="8VKs2V6aoFL6RpVqja8n-3">
          <mxGeometry x="45" y="200" width="10" height="20" as="geometry" />
        </mxCell>
        <mxCell id="8VKs2V6aoFL6RpVqja8n-4" value="createPresignedGetUrl" style="html=1;verticalAlign=bottom;endArrow=block;curved=0;rounded=0;" edge="1" parent="1" target="8VKs2V6aoFL6RpVqja8n-3">
          <mxGeometry width="80" relative="1" as="geometry">
            <mxPoint x="360" y="240" as="sourcePoint" />
            <mxPoint x="440" y="240" as="targetPoint" />
          </mxGeometry>
        </mxCell>
        <mxCell id="8VKs2V6aoFL6RpVqja8n-5" value="presignedUrl" style="html=1;verticalAlign=bottom;endArrow=open;dashed=1;endSize=8;curved=0;rounded=0;" edge="1" parent="1" target="dQi-lj7n18KRM8rQ5fiY-2">
          <mxGeometry relative="1" as="geometry">
            <mxPoint x="840" y="260" as="sourcePoint" />
            <mxPoint x="760" y="260" as="targetPoint" />
          </mxGeometry>
        </mxCell>
        <mxCell id="8VKs2V6aoFL6RpVqja8n-6" value="User" style="html=1;verticalAlign=bottom;endArrow=open;dashed=1;endSize=8;curved=0;rounded=0;" edge="1" parent="1" target="dQi-lj7n18KRM8rQ5fiY-2">
          <mxGeometry relative="1" as="geometry">
            <mxPoint x="1000" y="300" as="sourcePoint" />
            <mxPoint x="920" y="300" as="targetPoint" />
          </mxGeometry>
        </mxCell>
        <mxCell id="gcb2hz0dfVLVf8UYPgey-1" value="AWS S3" style="shape=umlLifeline;perimeter=lifelinePerimeter;whiteSpace=wrap;html=1;container=1;dropTarget=0;collapsible=0;recursiveResize=0;outlineConnect=0;portConstraint=eastwest;newEdgeStyle={&quot;curved&quot;:0,&quot;rounded&quot;:0};" vertex="1" parent="1">
          <mxGeometry x="-10" y="40" width="100" height="400" as="geometry" />
        </mxCell>
        <mxCell id="gcb2hz0dfVLVf8UYPgey-2" value="Download media" style="html=1;verticalAlign=bottom;endArrow=block;curved=0;rounded=0;" edge="1" parent="1" target="gcb2hz0dfVLVf8UYPgey-1">
          <mxGeometry width="80" relative="1" as="geometry">
            <mxPoint x="-80" y="380" as="sourcePoint" />
            <mxPoint y="380" as="targetPoint" />
          </mxGeometry>
        </mxCell>
        <mxCell id="gcb2hz0dfVLVf8UYPgey-3" value="media" style="html=1;verticalAlign=bottom;endArrow=open;dashed=1;endSize=8;curved=0;rounded=0;" edge="1" parent="1" target="lHCyS2TRgaWFzpB90BSP-1">
          <mxGeometry relative="1" as="geometry">
            <mxPoint x="40" y="420" as="sourcePoint" />
            <mxPoint x="-40" y="420" as="targetPoint" />
          </mxGeometry>
        </mxCell>
      </root>
    </mxGraphModel>
  </diagram>
</mxfile>
